Nobile-Medium.ufo
<glyph name="dollar" format="1">
  <advance width="964"/>
  <unicode hex="0024"/>
  <outline>
    <contour>
      <point x="344" y="-169" type="line"/>
      <point x="431" y="-169" type="line"/>
      <point x="636" y="1539" type="line"/>
      <point x="548" y="1539" type="line"/>
    </contour>
    <component base="s" xOffset="-5" yOffset="112"/>
  </outline>
</glyph>
<glyph name="percent" format="1">
  <advance width="1841"/>
  <unicode hex="0025"/>
  <outline>
    <contour>
      <point x="440" y="849" type="curve" smooth="yes"/>
      <point x="336" y="849"/>
      <point x="270" y="949"/>
      <point x="270" y="1109" type="curve" smooth="yes"/>
      <point x="270" y="1276"/>
      <point x="336" y="1381"/>
      <point x="440" y="1381" type="curve" smooth="yes"/>
      <point x="544" y="1381"/>
      <point x="609" y="1276"/>
      <point x="609" y="1109" type="curve" smooth="yes"/>
      <point x="609" y="949"/>
      <point x="544" y="849"/>
    </contour>
    <contour>
      <point x="440" y="721" type="curve" smooth="yes"/>
      <point x="636" y="721"/>
      <point x="758" y="871"/>
      <point x="758" y="1109" type="curve" smooth="yes"/>
      <point x="758" y="1352"/>
      <point x="636" y="1503"/>
      <point x="440" y="1503" type="curve" smooth="yes"/>
      <point x="244" y="1503"/>
      <point x="121" y="1352"/>
      <point x="121" y="1109" type="curve" smooth="yes"/>
      <point x="121" y="871"/>
      <point x="244" y="721"/>
    </contour>
    <contour>
      <point x="578" y="-62" type="line"/>
      <point x="1456" y="1498" type="line"/>
      <point x="1322" y="1558" type="line"/>
      <point x="444" y="-6" type="line"/>
    </contour>
    <contour>
      <point x="1439" y="111" type="curve" smooth="yes"/>
      <point x="1335" y="111"/>
      <point x="1269" y="211"/>
      <point x="1269" y="371" type="curve" smooth="yes"/>
      <point x="1269" y="539"/>
      <point x="1335" y="643"/>
      <point x="1439" y="643" type="curve" smooth="yes"/>
      <point x="1542" y="643"/>
      <point x="1607" y="539"/>
      <point x="1607" y="371" type="curve" smooth="yes"/>
      <point x="1607" y="211"/>
      <point x="1542" y="111"/>
    </contour>
    <contour>
      <point x="1439" y="-17" type="curve" smooth="yes"/>
      <point x="1634" y="-17"/>
      <point x="1757" y="133"/>
      <point x="1757" y="371" type="curve" smooth="yes"/>
      <point x="1757" y="614"/>
      <point x="1634" y="765"/>
      <point x="1439" y="765" type="curve" smooth="yes"/>
      <point x="1243" y="765"/>
      <point x="1119" y="614"/>
      <point x="1119" y="371" type="curve" smooth="yes"/>
      <point x="1119" y="133"/>
      <point x="1243" y="-17"/>
    </contour>
  </outline>
</glyph>
<glyph name="asterisk" format="1">
  <advance width="888"/>
  <unicode hex="002A"/>
  <outline>
    <contour>
      <point x="305" y="760" type="curve"/>
      <point x="310" y="768"/>
      <point x="420" y="969"/>
      <point x="446" y="1014" type="curve"/>
      <point x="587" y="759" type="line"/>
      <point x="699" y="822" type="line"/>
      <point x="539" y="1075" type="line"/>
      <point x="819" y="1070" type="line"/>
      <point x="819" y="1183" type="line"/>
      <point x="537" y="1177" type="line"/>
      <point x="689" y="1432" type="line"/>
      <point x="674" y="1440"/>
      <point x="592" y="1482"/>
      <point x="577" y="1491" type="curve"/>
      <point x="569" y="1478"/>
      <point x="467" y="1275"/>
      <point x="445" y="1237" type="curve"/>
      <point x="313" y="1490" type="line"/>
      <point x="202" y="1433" type="line"/>
      <point x="353" y="1177" type="line"/>
      <point x="67" y="1183" type="line"/>
      <point x="67" y="1070" type="line"/>
      <point x="351" y="1075" type="line"/>
      <point x="193" y="822" type="line"/>
      <point x="208" y="813"/>
      <point x="290" y="769"/>
    </contour>
  </outline>
</glyph>
<glyph name="comma" format="1">
  <advance width="683"/>
  <unicode hex="002C"/>
  <outline>
    <contour>
      <point x="249" y="-266" type="line"/>
      <point x="392" y="-225"/>
      <point x="489" y="-123"/>
      <point x="489" y="43" type="curve" smooth="yes"/>
      <point x="489" y="43"/>
      <point x="489" y="306"/>
      <point x="489" y="306" type="curve"/>
      <point x="214" y="306" type="line"/>
      <point x="214" y="1" type="line"/>
      <point x="327" y="1" type="line"/>
      <point x="328" y="-92"/>
      <point x="298" y="-151"/>
      <point x="207" y="-182" type="curve"/>
    </contour>
  </outline>
</glyph>
<glyph name="hyphen" format="1">
  <advance width="969"/>
  <unicode hex="002D"/>
  <outline>
    <contour>
      <point x="151" y="495" type="line"/>
      <point x="815" y="495" type="line"/>
      <point x="815" y="664" type="line"/>
      <point x="151" y="664" type="line"/>
    </contour>
  </outline>
</glyph>
<glyph name="period" format="1">
  <advance width="604"/>
  <unicode hex="002E"/>
  <outline>
    <contour>
      <point x="302" y="-11" type="curve" smooth="yes"/>
      <point x="374" y="-11"/>
      <point x="425" y="46"/>
      <point x="425" y="116" type="curve" smooth="yes"/>
      <point x="425" y="185"/>
      <point x="373" y="243"/>
      <point x="302" y="243" type="curve" smooth="yes"/>
      <point x="232" y="243"/>
      <point x="176" y="185"/>
      <point x="176" y="116" type="curve" smooth="yes"/>
      <point x="176" y="46"/>
      <point x="230" y="-11"/>
    </contour>
  </outline>
</glyph>
<glyph name="slash" format="1">
  <advance width="888"/>
  <unicode hex="002F"/>
  <outline>
    <contour>
      <point x="114" y="-160" type="line"/>
      <point x="860" y="1575" type="line"/>
      <point x="733" y="1629" type="line"/>
      <point x="-11" y="-107" type="line"/>
    </contour>
  </outline>
</glyph>
<glyph name="two" format="1">
  <advance width="1029"/>
  <unicode hex="0032"/>
  <outline>
    <contour>
      <point x="128" y="0" type="line"/>
      <point x="893" y="0" type="line"/>
      <point x="893" y="158" type="line"/>
      <point x="388" y="158" type="line"/>
      <point x="620" y="348" type="line" smooth="yes"/>
      <point x="782" y="482"/>
      <point x="895" y="618"/>
      <point x="895" y="783" type="curve" smooth="yes"/>
      <point x="895" y="1019"/>
      <point x="708" y="1116"/>
      <point x="502" y="1116" type="curve" smooth="yes"/>
      <point x="376" y="1116"/>
      <point x="248" y="1080"/>
      <point x="146" y="1020" type="curve"/>
      <point x="205" y="879" type="line"/>
      <point x="293" y="923"/>
      <point x="397" y="955"/>
      <point x="490" y="955" type="curve" smooth="yes"/>
      <point x="607" y="955"/>
      <point x="702" y="906"/>
      <point x="702" y="771" type="curve" smooth="yes"/>
      <point x="702" y="630"/>
      <point x="574" y="530"/>
      <point x="475" y="443" type="curve" smooth="yes"/>
      <point x="128" y="140" type="line"/>
    </contour>
  </outline>
</glyph>
<glyph name="seven" format="1">
  <advance width="1083"/>
  <unicode hex="0037"/>
  <outline>
    <contour>
      <point x="443" y="-229" type="line"/>
      <point x="985" y="967" type="line"/>
      <point x="926" y="1096" type="line"/>
      <point x="129" y="1096" type="line"/>
      <point x="129" y="925" type="line"/>
      <point x="739" y="925" type="line"/>
      <point x="253" y="-144" type="line"/>
    </contour>
  </outline>
</glyph>
<glyph name="less" format="1">
  <advance width="1381"/>
  <unicode hex="003C"/>
  <outline>
    <contour>
      <point x="1104" y="128" type="line"/>
      <point x="1194" y="259" type="line"/>
      <point x="498" y="709" type="line"/>
      <point x="1194" y="1157" type="line"/>
      <point x="1104" y="1289" type="line"/>
      <point x="178" y="709" type="line"/>
    </contour>
  </outline>
</glyph>
<glyph name="equal" format="1">
  <advance width="949"/>
  <unicode hex="003D"/>
  <outline>
    <contour>
      <point x="110" y="300" type="line"/>
      <point x="828" y="300" type="line"/>
      <point x="828" y="447" type="line"/>
      <point x="110" y="447" type="line"/>
    </contour>
    <contour>
      <point x="110" y="598" type="line"/>
      <point x="828" y="598" type="line"/>
      <point x="828" y="746" type="line"/>
      <point x="110" y="746" type="line"/>
    </contour>
  </outline>
</glyph>
<glyph name="question" format="1">
  <advance width="1041"/>
  <unicode hex="003F"/>
  <outline>
    <contour>
      <point x="231" y="419" type="line"/>
      <point x="400" y="419" type="line"/>
      <point x="400" y="640" type="line"/>
      <point x="664" y="724"/>
      <point x="923" y="843"/>
      <point x="923" y="1133" type="curve" smooth="yes"/>
      <point x="923" y="1399"/>
      <point x="701" y="1499"/>
      <point x="462" y="1499" type="curve" smooth="yes"/>
      <point x="318" y="1499"/>
      <point x="167" y="1462"/>
      <point x="57" y="1405" type="curve"/>
      <point x="110" y="1250" type="line"/>
      <point x="205" y="1297"/>
      <point x="330" y="1330"/>
      <point x="441" y="1330" type="curve" smooth="yes"/>
      <point x="589" y="1330"/>
      <point x="708" y="1270"/>
      <point x="708" y="1117" type="curve" smooth="yes"/>
      <point x="708" y="899"/>
      <point x="418" y="808"/>
      <point x="231" y="749" type="curve"/>
    </contour>
    <contour>
      <point x="312" y="-18" type="curve" smooth="yes"/>
      <point x="391" y="-18"/>
      <point x="448" y="37"/>
      <point x="448" y="117" type="curve" smooth="yes"/>
      <point x="448" y="197"/>
      <point x="395" y="251"/>
      <point x="316" y="251" type="curve" smooth="yes"/>
      <point x="233" y="251"/>
      <point x="178" y="199"/>
      <point x="178" y="122" type="curve" smooth="yes"/>
      <point x="178" y="38"/>
      <point x="232" y="-18"/>
    </contour>
  </outline>
</glyph>
<glyph name="at" format="1">
  <advance width="1874"/>
  <unicode hex="0040"/>
  <outline>
    <contour>
      <point x="935" y="-124" type="curve" smooth="yes"/>
      <point x="1093" y="-124"/>
      <point x="1270" y="-93"/>
      <point x="1391" y="-45" type="curve"/>
      <point x="1350" y="78" type="line"/>
      <point x="1238" y="28"/>
      <point x="1078" y="-3"/>
      <point x="935" y="-3" type="curve" smooth="yes"/>
      <point x="512" y="-3"/>
      <point x="259" y="250"/>
      <point x="265" y="658" type="curve" smooth="yes"/>
      <point x="272" y="1107"/>
      <point x="562" y="1389"/>
      <point x="1004" y="1389" type="curve" smooth="yes"/>
      <point x="1403" y="1389"/>
      <point x="1651" y="1163"/>
      <point x="1651" y="801" type="curve" smooth="yes"/>
      <point x="1651" y="526"/>
      <point x="1564" y="356"/>
      <point x="1430" y="356" type="curve" smooth="yes"/>
      <point x="1391" y="356"/>
      <point x="1369" y="384"/>
      <point x="1373" y="433" type="curve" smooth="yes"/>
      <point x="1373" y="435"/>
      <point x="1422" y="988"/>
      <point x="1424" y="1011" type="curve" smooth="yes"/>
      <point x="1430" y="1112"/>
      <point x="1300" y="1174"/>
      <point x="1090" y="1174" type="curve" smooth="yes"/>
      <point x="723" y="1174"/>
      <point x="485" y="946"/>
      <point x="485" y="583" type="curve" smooth="yes"/>
      <point x="485" y="372"/>
      <point x="609" y="237"/>
      <point x="817" y="237" type="curve" smooth="yes"/>
      <point x="1030" y="237"/>
      <point x="1205" y="394"/>
      <point x="1270" y="646" type="curve"/>
      <point x="1272" y="645" type="line"/>
      <point x="1272" y="595"/>
      <point x="1258" y="483"/>
      <point x="1258" y="408" type="curve" smooth="yes"/>
      <point x="1258" y="311"/>
      <point x="1317" y="251"/>
      <point x="1411" y="251" type="curve" smooth="yes"/>
      <point x="1643" y="251"/>
      <point x="1786" y="463"/>
      <point x="1786" y="801" type="curve" smooth="yes"/>
      <point x="1786" y="1235"/>
      <point x="1485" y="1509"/>
      <point x="1004" y="1509" type="curve" smooth="yes"/>
      <point x="464" y="1509"/>
      <point x="115" y="1173"/>
      <point x="115" y="640" type="curve" smooth="yes"/>
      <point x="115" y="169"/>
      <point x="429" y="-124"/>
    </contour>
    <contour>
      <point x="842" y="351" type="curve" smooth="yes"/>
      <point x="707" y="350"/>
      <point x="627" y="446"/>
      <point x="627" y="597" type="curve" smooth="yes"/>
      <point x="627" y="890"/>
      <point x="810" y="1072"/>
      <point x="1090" y="1074" type="curve" smooth="yes"/>
      <point x="1150" y="1074"/>
      <point x="1230" y="1058"/>
      <point x="1300" y="1034" type="curve"/>
      <point x="1257" y="615"/>
      <point x="1079" y="352"/>
    </contour>
  </outline>
</glyph>
<glyph name="A" format="1">
  <advance width="1356"/>
  <unicode hex="0041"/>
  <outline>
    <contour>
      <point x="675" y="1485" type="move" name="top"/>
    </contour>
    <contour>
      <point x="35" y="0" type="line"/>
      <point x="257" y="0" type="line"/>
      <point x="370" y="352" type="line"/>
      <point x="980" y="352" type="line"/>
      <point x="1093" y="0" type="line"/>
      <point x="1316" y="0" type="line"/>
      <point x="827" y="1485" type="line"/>
      <point x="522" y="1485" type="line"/>
    </contour>
    <contour>
      <point x="405" y="467" type="line"/>
      <point x="676" y="1306" type="line"/>
      <point x="945" y="467" type="line"/>
    </contour>
  </outline>
</glyph>
<glyph name="B" format="1">
  <advance width="1377"/>
  <unicode hex="0042"/>
  <outline>
    <contour>
      <point x="662" y="1485" type="move" name="top"/>
    </contour>
    <contour>
      <point x="178" y="0" type="line"/>
      <point x="617" y="0" type="line" smooth="yes"/>
      <point x="915" y="0"/>
      <point x="1255" y="49"/>
      <point x="1255" y="416" type="curve" smooth="yes"/>
      <point x="1255" y="662"/>
      <point x="1116" y="765"/>
      <point x="906" y="801" type="curve"/>
      <point x="1078" y="834"/>
      <point x="1185" y="918"/>
      <point x="1185" y="1118" type="curve" smooth="yes"/>
      <point x="1185" y="1475"/>
      <point x="851" y="1485"/>
      <point x="570" y="1485" type="curve" smooth="yes"/>
      <point x="178" y="1485" type="line"/>
    </contour>
    <contour>
      <point x="404" y="161" type="curve"/>
      <point x="404" y="718" type="line"/>
      <point x="620" y="718" type="line" smooth="yes"/>
      <point x="832" y="718"/>
      <point x="1041" y="696"/>
      <point x="1041" y="438" type="curve" smooth="yes"/>
      <point x="1041" y="170"/>
      <point x="831" y="161"/>
      <point x="621" y="161" type="curve" smooth="yes"/>
      <point x="615" y="161"/>
      <point x="424" y="161"/>
    </contour>
    <contour>
      <point x="404" y="863" type="line"/>
      <point x="404" y="1326" type="line"/>
      <point x="574" y="1326" type="line" smooth="yes"/>
      <point x="743" y="1326"/>
      <point x="991" y="1335"/>
      <point x="991" y="1106" type="curve" smooth="yes"/>
      <point x="991" y="885"/>
      <point x="797" y="863"/>
      <point x="618" y="863" type="curve" smooth="yes"/>
    </contour>
  </outline>
</glyph>
<glyph name="D" format="1">
  <advance width="1477"/>
  <unicode hex="0044"/>
  <outline>
    <contour>
      <point x="709" y="1485" type="move" name="top"/>
    </contour>
    <contour>
      <point x="404" y="163" type="line"/>
      <point x="404" y="1324" type="line"/>
      <point x="674" y="1324" type="line" smooth="yes"/>
      <point x="1033" y="1324"/>
      <point x="1124" y="1056"/>
      <point x="1124" y="742" type="curve" smooth="yes"/>
      <point x="1124" y="427"/>
      <point x="1036" y="163"/>
      <point x="674" y="163" type="curve" smooth="yes"/>
    </contour>
    <contour>
      <point x="178" y="0" type="line"/>
      <point x="680" y="0" type="line" smooth="yes"/>
      <point x="1153" y="0"/>
      <point x="1350" y="298"/>
      <point x="1350" y="741" type="curve" smooth="yes"/>
      <point x="1350" y="1185"/>
      <point x="1156" y="1485"/>
      <point x="680" y="1485" type="curve" smooth="yes"/>
      <point x="178" y="1485" type="line"/>
    </contour>
  </outline>
</glyph>
<glyph name="F" format="1">
  <advance width="1162"/>
  <unicode hex="0046"/>
  <outline>
    <contour>
      <point x="668" y="1485" type="move" name="top"/>
    </contour>
    <contour>
      <point x="178" y="0" type="line"/>
      <point x="406" y="0" type="line"/>
      <point x="406" y="690" type="line"/>
      <point x="1005" y="690" type="line"/>
      <point x="1005" y="828" type="line"/>
      <point x="406" y="828" type="line"/>
      <point x="406" y="1320" type="line"/>
      <point x="1059" y="1320" type="line"/>
      <point x="1059" y="1485" type="line"/>
      <point x="178" y="1485" type="line"/>
    </contour>
  </outline>
</glyph>
<glyph name="G" format="1">
  <advance width="1478"/>
  <unicode hex="0047"/>
  <outline>
    <contour>
      <point x="770" y="-2" type="move" name="bot"/>
    </contour>
    <contour>
      <point x="734" y="-20" type="curve" smooth="yes"/>
      <point x="908" y="-20"/>
      <point x="1105" y="38"/>
      <point x="1148" y="185" type="curve"/>
      <point x="1196" y="0" type="line"/>
      <point x="1312" y="0" type="line"/>
      <point x="1312" y="781" type="line"/>
      <point x="765" y="781" type="line"/>
      <point x="765" y="638" type="line"/>
      <point x="1110" y="638" type="line"/>
      <point x="1110" y="357" type="line"/>
      <point x="1095" y="208"/>
      <point x="939" y="150"/>
      <point x="784" y="150" type="curve" smooth="yes"/>
      <point x="441" y="150"/>
      <point x="355" y="413"/>
      <point x="355" y="733" type="curve" smooth="yes"/>
      <point x="355" y="1053"/>
      <point x="453" y="1334"/>
      <point x="802" y="1334" type="curve" smooth="yes"/>
      <point x="924" y="1334"/>
      <point x="1060" y="1296"/>
      <point x="1152" y="1236" type="curve"/>
      <point x="1223" y="1386" type="line"/>
      <point x="1093" y="1456"/>
      <point x="958" y="1505"/>
      <point x="798" y="1505" type="curve" smooth="yes"/>
      <point x="346" y="1505"/>
      <point x="128" y="1194"/>
      <point x="128" y="736" type="curve" smooth="yes"/>
      <point x="128" y="334"/>
      <point x="313" y="-20"/>
    </contour>
  </outline>
</glyph>
<glyph name="H" format="1">
  <advance width="1522"/>
  <unicode hex="0048"/>
  <outline>
    <contour>
      <point x="767" y="1485" type="move" name="top"/>
    </contour>
    <contour>
      <point x="178" y="0" type="line"/>
      <point x="404" y="0" type="line"/>
      <point x="404" y="694" type="line"/>
      <point x="1119" y="694" type="line"/>
      <point x="1119" y="0" type="line"/>
      <point x="1344" y="0" type="line"/>
      <point x="1344" y="1485" type="line"/>
      <point x="1119" y="1485" type="line"/>
      <point x="1119" y="851" type="line"/>
      <point x="404" y="851" type="line"/>
      <point x="404" y="1485" type="line"/>
      <point x="178" y="1485" type="line"/>
    </contour>
  </outline>
</glyph>
<glyph name="J" format="1">
  <advance width="784"/>
  <unicode hex="004A"/>
  <outline>
    <contour>
      <point x="472" y="1485" type="move" name="top"/>
    </contour>
    <contour>
      <point x="89" y="-163" type="line"/>
      <point x="500" y="-130"/>
      <point x="585" y="58"/>
      <point x="585" y="404" type="curve" smooth="yes"/>
      <point x="585" y="1485" type="line"/>
      <point x="359" y="1485" type="line"/>
      <point x="359" y="402" type="line" smooth="yes"/>
      <point x="359" y="144"/>
      <point x="335" y="48"/>
      <point x="63" y="8" type="curve"/>
    </contour>
  </outline>
</glyph>
<glyph name="M" format="1">
  <advance width="1831"/>
  <unicode hex="004D"/>
  <outline>
    <contour>
      <point x="921" y="1485" type="move" name="top"/>
    </contour>
    <contour>
      <point x="178" y="0" type="line"/>
      <point x="374" y="0" type="line"/>
      <point x="374" y="1193" type="line"/>
      <point x="829" y="85" type="line"/>
      <point x="999" y="85" type="line"/>
      <point x="1458" y="1193" type="line"/>
      <point x="1458" y="0" type="line"/>
      <point x="1654" y="0" type="line"/>
      <point x="1654" y="1485" type="line"/>
      <point x="1381" y="1485" type="line"/>
      <point x="914" y="338" type="line"/>
      <point x="450" y="1485" type="line"/>
      <point x="178" y="1485" type="line"/>
    </contour>
  </outline>
</glyph>
<glyph name="P" format="1">
  <advance width="1302"/>
  <unicode hex="0050"/>
  <outline>
    <contour>
      <point x="657" y="1485" type="move" name="top"/>
    </contour>
    <contour>
      <point x="178" y="0" type="line"/>
      <point x="404" y="0" type="line"/>
      <point x="404" y="605" type="line"/>
      <point x="457" y="605" type="line" smooth="yes"/>
      <point x="837" y="605"/>
      <point x="1242" y="627"/>
      <point x="1242" y="1058" type="curve" smooth="yes"/>
      <point x="1242" y="1436"/>
      <point x="947" y="1485"/>
      <point x="576" y="1485" type="curve" smooth="yes"/>
      <point x="178" y="1485" type="line"/>
    </contour>
    <contour>
      <point x="404" y="766" type="line"/>
      <point x="404" y="1332" type="line"/>
      <point x="582" y="1332" type="line" smooth="yes"/>
      <point x="853" y="1332"/>
      <point x="1023" y="1313"/>
      <point x="1023" y="1034" type="curve" smooth="yes"/>
      <point x="1023" y="781"/>
      <point x="765" y="766"/>
      <point x="546" y="766" type="curve" smooth="yes"/>
    </contour>
  </outline>
</glyph>
<glyph name="Q" format="1">
  <advance width="1519"/>
  <unicode hex="0051"/>
  <outline>
    <contour>
      <point x="1019" y="-407" type="line"/>
      <point x="1145" y="-315" type="line"/>
      <point x="913" y="-2" type="line"/>
      <point x="1255" y="62"/>
      <point x="1391" y="365"/>
      <point x="1391" y="740" type="curve" smooth="yes"/>
      <point x="1391" y="1180"/>
      <point x="1213" y="1505"/>
      <point x="759" y="1505" type="curve" smooth="yes"/>
      <point x="312" y="1505"/>
      <point x="128" y="1166"/>
      <point x="128" y="740" type="curve" smooth="yes"/>
      <point x="128" y="324"/>
      <point x="295" y="2"/>
      <point x="719" y="-16" type="curve"/>
    </contour>
    <contour>
      <point x="759" y="152" type="curve" smooth="yes"/>
      <point x="426" y="152"/>
      <point x="355" y="442"/>
      <point x="355" y="740" type="curve" smooth="yes"/>
      <point x="355" y="1037"/>
      <point x="426" y="1334"/>
      <point x="759" y="1334" type="curve" smooth="yes"/>
      <point x="1092" y="1334"/>
      <point x="1164" y="1039"/>
      <point x="1164" y="740" type="curve" smooth="yes"/>
      <point x="1164" y="444"/>
      <point x="1091" y="152"/>
    </contour>
  </outline>
</glyph>
<glyph name="R" format="1">
  <advance width="1428"/>
  <unicode hex="0052"/>
  <outline>
    <contour>
      <point x="679" y="1485" type="move" name="top"/>
    </contour>
    <contour>
      <point x="721" y="0" type="move" name="bot"/>
    </contour>
    <contour>
      <point x="178" y="0" type="line"/>
      <point x="404" y="0" type="line"/>
      <point x="404" y="677" type="line"/>
      <point x="671" y="677" type="line" smooth="yes"/>
      <point x="957" y="677"/>
      <point x="1009" y="628"/>
      <point x="1036" y="391" type="curve" smooth="yes"/>
      <point x="1079" y="0" type="line"/>
      <point x="1294" y="0" type="line"/>
      <point x="1249" y="426" type="line" smooth="yes"/>
      <point x="1227" y="644"/>
      <point x="1156" y="747"/>
      <point x="981" y="763" type="curve"/>
      <point x="1156" y="790"/>
      <point x="1259" y="907"/>
      <point x="1259" y="1094" type="curve" smooth="yes"/>
      <point x="1259" y="1448"/>
      <point x="996" y="1485"/>
      <point x="609" y="1485" type="curve" smooth="yes"/>
      <point x="178" y="1485" type="line"/>
    </contour>
    <contour>
      <point x="404" y="824" type="line"/>
      <point x="404" y="1332" type="line"/>
      <point x="595" y="1332" type="line" smooth="yes"/>
      <point x="841" y="1332"/>
      <point x="1050" y="1338"/>
      <point x="1050" y="1076" type="curve" smooth="yes"/>
      <point x="1050" y="851"/>
      <point x="847" y="824"/>
      <point x="660" y="824" type="curve" smooth="yes"/>
    </contour>
  </outline>
</glyph>
<glyph name="S" format="1">
  <advance width="1200"/>
  <unicode hex="0053"/>
  <outline>
    <contour>
      <point x="606" y="1487" type="move" name="top"/>
    </contour>
    <contour>
      <point x="597" y="-2" type="move" name="bot"/>
    </contour>
    <contour>
      <point x="909" y="399" type="curve" smooth="yes"/>
      <point x="909" y="211"/>
      <point x="783" y="155"/>
      <point x="602" y="155" type="curve" smooth="yes"/>
      <point x="424" y="155"/>
      <point x="247" y="237"/>
      <point x="182" y="279" type="curve"/>
      <point x="111" y="113" type="line"/>
      <point x="237" y="38"/>
      <point x="455" y="-20"/>
      <point x="600" y="-20" type="curve" smooth="yes"/>
      <point x="923" y="-20"/>
      <point x="1114" y="124"/>
      <point x="1114" y="403" type="curve" smooth="yes"/>
      <point x="1114" y="669"/>
      <point x="984" y="754"/>
      <point x="741" y="842" type="curve" smooth="yes"/>
      <point x="529" y="919" type="line" smooth="yes"/>
      <point x="393" y="967"/>
      <point x="318" y="1008"/>
      <point x="318" y="1134" type="curve" smooth="yes"/>
      <point x="318" y="1274"/>
      <point x="445" y="1330"/>
      <point x="599" y="1330" type="curve" smooth="yes"/>
      <point x="729" y="1330"/>
      <point x="876" y="1290"/>
      <point x="971" y="1233" type="curve"/>
      <point x="1040" y="1386" type="line"/>
      <point x="907" y="1469"/>
      <point x="745" y="1505"/>
      <point x="583" y="1505" type="curve" smooth="yes"/>
      <point x="319" y="1505"/>
      <point x="106" y="1382"/>
      <point x="106" y="1113" type="curve" smooth="yes"/>
      <point x="106" y="884"/>
      <point x="246" y="804"/>
      <point x="444" y="734" type="curve" smooth="yes"/>
      <point x="678" y="652" type="line" smooth="yes"/>
      <point x="857" y="589"/>
      <point x="910" y="542"/>
    </contour>
  </outline>
</glyph>
<glyph name="T" format="1">
  <advance width="1061"/>
  <unicode hex="0054"/>
  <outline>
    <contour>
      <point x="553" y="1485" type="move" name="top"/>
    </contour>
    <contour>
      <point x="540" y="0" type="move" name="bot"/>
    </contour>
    <contour>
      <point x="426" y="0" type="line"/>
      <point x="648" y="0" type="line"/>
      <point x="648" y="1320" type="line"/>
      <point x="1066" y="1320" type="line"/>
      <point x="1066" y="1485" type="line"/>
      <point x="5" y="1485" type="line"/>
      <point x="5" y="1320" type="line"/>
      <point x="426" y="1320" type="line"/>
    </contour>
  </outline>
</glyph>
<glyph name="V" format="1">
  <advance width="1334"/>
  <unicode hex="0056"/>
  <outline>
    <contour>
      <point x="536" y="0" type="line"/>
      <point x="772" y="0" type="line"/>
      <point x="1297" y="1485" type="line"/>
      <point x="1079" y="1485" type="line"/>
      <point x="662" y="256" type="line"/>
      <point x="257" y="1485" type="line"/>
      <point x="38" y="1485" type="line"/>
    </contour>
  </outline>
</glyph>
<glyph name="W" format="1">
  <advance width="2004"/>
  <unicode hex="0057"/>
  <outline>
    <contour>
      <point x="1010" y="1485" type="move" name="top"/>
    </contour>
    <contour>
      <point x="419" y="0" type="line"/>
      <point x="662" y="0" type="line"/>
      <point x="1005" y="1205" type="line"/>
      <point x="1335" y="0" type="line"/>
      <point x="1579" y="0" type="line"/>
      <point x="1927" y="1485" type="line"/>
      <point x="1718" y="1485" type="line"/>
      <point x="1440" y="244" type="line"/>
      <point x="1116" y="1441" type="line"/>
      <point x="896" y="1441" type="line"/>
      <point x="559" y="244" type="line"/>
      <point x="284" y="1485" type="line"/>
      <point x="77" y="1485" type="line"/>
    </contour>
  </outline>
</glyph>
<glyph name="Z" format="1">
  <advance width="1118"/>
  <unicode hex="005A"/>
  <outline>
    <contour>
      <point x="606" y="1485" type="move" name="top"/>
    </contour>
    <contour>
      <point x="106" y="0" type="line"/>
      <point x="1047" y="0" type="line"/>
      <point x="1047" y="165" type="line"/>
      <point x="348" y="165" type="line"/>
      <point x="1052" y="1343" type="line"/>
      <point x="1052" y="1485" type="line"/>
      <point x="128" y="1485" type="line"/>
      <point x="128" y="1328" type="line"/>
      <point x="809" y="1328" type="line"/>
      <point x="106" y="157" type="line"/>
    </contour>
  </outline>
</glyph>
<glyph name="bracketleft" format="1">
  <advance width="909"/>
  <unicode hex="005B"/>
  <outline>
    <contour>
      <point x="169" y="-173" type="line"/>
      <point x="816" y="-173" type="line"/>
      <point x="816" y="-28" type="line"/>
      <point x="385" y="-28" type="line"/>
      <point x="385" y="1486" type="line"/>
      <point x="816" y="1486" type="line"/>
      <point x="816" y="1631" type="line"/>
      <point x="169" y="1631" type="line"/>
    </contour>
  </outline>
</glyph>
<glyph name="backslash" format="1">
  <advance width="973"/>
  <unicode hex="005C"/>
  <outline>
    <contour>
      <point x="666" y="-156" type="line"/>
      <point x="855" y="-88" type="line"/>
      <point x="283" y="1618" type="line"/>
      <point x="94" y="1555" type="line"/>
    </contour>
  </outline>
</glyph>
<glyph name="bracketright" format="1">
  <advance width="908"/>
  <unicode hex="005D"/>
  <outline>
    <contour>
      <point x="92" y="-173" type="line"/>
      <point x="739" y="-173" type="line"/>
      <point x="739" y="1631" type="line"/>
      <point x="92" y="1631" type="line"/>
      <point x="92" y="1486" type="line"/>
      <point x="524" y="1486" type="line"/>
      <point x="524" y="-28" type="line"/>
      <point x="92" y="-28" type="line"/>
    </contour>
  </outline>
</glyph>
<glyph name="asciicircum" format="1">
  <advance width="1102"/>
  <unicode hex="005E"/>
  <outline>
    <contour>
      <point x="61" y="565" type="line"/>
      <point x="247" y="565" type="line"/>
      <point x="551" y="1250" type="line"/>
      <point x="855" y="565" type="line"/>
      <point x="1041" y="565" type="line"/>
      <point x="638" y="1486" type="line"/>
      <point x="465" y="1486" type="line"/>
    </contour>
  </outline>
</glyph>
<glyph name="grave" format="1">
  <advance width="787"/>
  <unicode hex="0060"/>
  <outline>
    <contour>
      <point x="528" y="1098" type="move" name="_top"/>
    </contour>
    <contour>
      <point x="533" y="1286" type="line"/>
      <point x="588" y="1353" type="line"/>
      <point x="181" y="1743" type="line"/>
      <point x="45" y="1590" type="line"/>
    </contour>
  </outline>
</glyph>
<glyph name="b" format="1">
  <advance width="1259"/>
  <unicode hex="0062"/>
  <outline>
    <contour>
      <point x="697" y="1099" type="move" name="top"/>
    </contour>
    <contour>
      <point x="686" y="-20" type="curve" smooth="yes"/>
      <point x="992" y="-20"/>
      <point x="1153" y="240"/>
      <point x="1153" y="547" type="curve" smooth="yes"/>
      <point x="1153" y="881"/>
      <point x="1000" y="1116"/>
      <point x="714" y="1116" type="curve" smooth="yes"/>
      <point x="576" y="1116"/>
      <point x="461" y="1065"/>
      <point x="377" y="985" type="curve"/>
      <point x="377" y="1526" type="line"/>
      <point x="159" y="1487" type="line"/>
      <point x="159" y="0" type="line"/>
      <point x="316" y="0" type="line"/>
      <point x="348" y="132" type="line"/>
      <point x="421" y="51"/>
      <point x="529" y="-20"/>
    </contour>
    <contour>
      <point x="666" y="129" type="curve" smooth="yes"/>
      <point x="531" y="129"/>
      <point x="444" y="177"/>
      <point x="377" y="254" type="curve"/>
      <point x="377" y="847" type="line"/>
      <point x="458" y="918"/>
      <point x="556" y="963"/>
      <point x="664" y="963" type="curve" smooth="yes"/>
      <point x="845" y="963"/>
      <point x="941" y="823"/>
      <point x="941" y="550" type="curve" smooth="yes"/>
      <point x="941" y="335"/>
      <point x="872" y="129"/>
    </contour>
  </outline>
</glyph>
<glyph name="c" format="1">
  <advance width="1041"/>
  <unicode hex="0063"/>
  <outline>
    <contour>
      <point x="585" y="1099" type="move" name="top"/>
    </contour>
    <contour>
      <point x="615" y="-3" type="move" name="bot"/>
    </contour>
    <contour>
      <point x="621" y="1116" type="curve" smooth="yes"/>
      <point x="304" y="1116"/>
      <point x="107" y="871"/>
      <point x="107" y="550" type="curve" smooth="yes"/>
      <point x="107" y="228"/>
      <point x="310" y="-20"/>
      <point x="636" y="-20" type="curve" smooth="yes"/>
      <point x="757" y="-20"/>
      <point x="867" y="18"/>
      <point x="967" y="98" type="curve"/>
      <point x="903" y="228" type="line"/>
      <point x="833" y="175"/>
      <point x="748" y="134"/>
      <point x="653" y="134" type="curve" smooth="yes"/>
      <point x="428" y="134"/>
      <point x="324" y="333"/>
      <point x="324" y="547" type="curve" smooth="yes"/>
      <point x="324" y="762"/>
      <point x="419" y="958"/>
      <point x="640" y="959" type="curve" smooth="yes"/>
      <point x="735" y="959"/>
      <point x="831" y="927"/>
      <point x="906" y="863" type="curve"/>
      <point x="967" y="1001" type="line"/>
      <point x="863" y="1081"/>
      <point x="746" y="1116"/>
    </contour>
  </outline>
</glyph>
<glyph name="e" format="1">
  <advance width="1148"/>
  <unicode hex="0065"/>
  <outline>
    <contour>
      <point x="614" y="1099" type="move" name="top"/>
    </contour>
    <contour>
      <point x="625" y="-3" type="move" name="bot"/>
    </contour>
    <contour>
      <point x="625" y="-20" type="curve" smooth="yes"/>
      <point x="755" y="-20"/>
      <point x="916" y="20"/>
      <point x="1013" y="97" type="curve"/>
      <point x="954" y="233" type="line"/>
      <point x="905" y="198"/>
      <point x="795" y="134"/>
      <point x="657" y="134" type="curve" smooth="yes"/>
      <point x="476" y="134"/>
      <point x="326" y="236"/>
      <point x="322" y="514" type="curve"/>
      <point x="1033" y="514" type="line"/>
      <point x="1039" y="568"/>
      <point x="1043" y="600"/>
      <point x="1043" y="634" type="curve" smooth="yes"/>
      <point x="1043" y="914"/>
      <point x="899" y="1116"/>
      <point x="613" y="1116" type="curve" smooth="yes"/>
      <point x="279" y="1116"/>
      <point x="106" y="856"/>
      <point x="106" y="543" type="curve" smooth="yes"/>
      <point x="106" y="222"/>
      <point x="282" y="-20"/>
    </contour>
    <contour>
      <point x="327" y="648" type="line"/>
      <point x="339" y="828"/>
      <point x="419" y="964"/>
      <point x="611" y="964" type="curve" smooth="yes"/>
      <point x="781" y="964"/>
      <point x="854" y="837"/>
      <point x="854" y="676" type="curve" smooth="yes"/>
      <point x="854" y="648" type="line"/>
    </contour>
  </outline>
</glyph>
<glyph name="f" format="1">
  <advance width="812"/>
  <unicode hex="0066"/>
  <outline>
    <contour>
      <point x="351" y="1486" type="move" name="top"/>
    </contour>
    <contour>
      <point x="602" y="1554" type="curve" smooth="yes"/>
      <point x="447" y="1558"/>
      <point x="260" y="1478"/>
      <point x="260" y="1170" type="curve" smooth="yes"/>
      <point x="260" y="1096" type="line"/>
      <point x="71" y="1096" type="line"/>
      <point x="71" y="964" type="line"/>
      <point x="260" y="964" type="line"/>
      <point x="260" y="0" type="line"/>
      <point x="475" y="0" type="line"/>
      <point x="475" y="964" type="line"/>
      <point x="795" y="964" type="line"/>
      <point x="795" y="1096" type="line"/>
      <point x="475" y="1096" type="line"/>
      <point x="475" y="1173" type="line" smooth="yes"/>
      <point x="475" y="1368"/>
      <point x="569" y="1394"/>
      <point x="641" y="1394" type="curve" smooth="yes"/>
      <point x="681" y="1395"/>
      <point x="743" y="1380"/>
      <point x="790" y="1363" type="curve"/>
      <point x="830" y="1502" type="line"/>
      <point x="763" y="1533"/>
      <point x="683" y="1553"/>
    </contour>
  </outline>
</glyph>
<glyph name="g" format="1">
  <advance width="1154"/>
  <unicode hex="0067"/>
  <outline>
    <contour>
      <point x="554" y="1099" type="move" name="top"/>
    </contour>
    <contour>
      <point x="509" y="-413" type="curve" smooth="yes"/>
      <point x="800" y="-413"/>
      <point x="1073" y="-352"/>
      <point x="1073" y="-92" type="curve" smooth="yes"/>
      <point x="1073" y="181"/>
      <point x="890" y="213"/>
      <point x="654" y="213" type="curve" smooth="yes"/>
      <point x="367" y="213" type="line"/>
      <point x="366" y="214"/>
      <point x="332" y="249"/>
      <point x="332" y="302" type="curve" smooth="yes"/>
      <point x="332" y="354"/>
      <point x="370" y="418"/>
      <point x="371" y="421" type="curve"/>
      <point x="375" y="419"/>
      <point x="443" y="387"/>
      <point x="554" y="387" type="curve" smooth="yes"/>
      <point x="806" y="387"/>
      <point x="979" y="512"/>
      <point x="979" y="766" type="curve" smooth="yes"/>
      <point x="977" y="836"/>
      <point x="944" y="907"/>
      <point x="907" y="940" type="curve"/>
      <point x="1131" y="964" type="line"/>
      <point x="1131" y="1009"/>
      <point x="1121" y="1103"/>
      <point x="1120" y="1103" type="curve" smooth="yes"/>
      <point x="1011" y="1102"/>
      <point x="921" y="1095"/>
      <point x="822" y="1046" type="curve"/>
      <point x="750" y="1099"/>
      <point x="664" y="1116"/>
      <point x="557" y="1116" type="curve" smooth="yes"/>
      <point x="286" y="1116"/>
      <point x="124" y="961"/>
      <point x="124" y="759" type="curve" smooth="yes"/>
      <point x="124" y="585"/>
      <point x="224" y="498"/>
      <point x="280" y="468" type="curve"/>
      <point x="200" y="398"/>
      <point x="151" y="324"/>
      <point x="151" y="248" type="curve" smooth="yes"/>
      <point x="151" y="162"/>
      <point x="214" y="104"/>
      <point x="281" y="90" type="curve"/>
      <point x="188" y="51"/>
      <point x="122" y="-26"/>
      <point x="122" y="-138" type="curve" smooth="yes"/>
      <point x="122" y="-374"/>
      <point x="319" y="-413"/>
    </contour>
    <contour>
      <point x="525" y="-260" type="curve" smooth="yes"/>
      <point x="400" y="-260"/>
      <point x="306" y="-234"/>
      <point x="306" y="-114" type="curve" smooth="yes"/>
      <point x="306" y="-45"/>
      <point x="336" y="29"/>
      <point x="387" y="63" type="curve"/>
      <point x="664" y="63" type="line" smooth="yes"/>
      <point x="795" y="63"/>
      <point x="884" y="66"/>
      <point x="884" y="-87" type="curve" smooth="yes"/>
      <point x="884" y="-251"/>
      <point x="701" y="-260"/>
    </contour>
    <contour>
      <point x="563" y="531" type="curve" smooth="yes"/>
      <point x="383" y="531"/>
      <point x="315" y="620"/>
      <point x="315" y="759" type="curve" smooth="yes"/>
      <point x="315" y="886"/>
      <point x="395" y="974"/>
      <point x="569" y="974" type="curve" smooth="yes"/>
      <point x="733" y="974"/>
      <point x="801" y="886"/>
      <point x="801" y="747" type="curve" smooth="yes"/>
      <point x="801" y="644"/>
      <point x="737" y="531"/>
    </contour>
  </outline>
</glyph>
<glyph name="i" format="1">
  <advance width="566"/>
  <unicode hex="0069"/>
  <outline>
    <contour>
      <point x="182" y="0" type="line"/>
      <point x="396" y="0" type="line"/>
      <point x="396" y="1096" type="line"/>
      <point x="182" y="1096" type="line"/>
    </contour>
    <contour>
      <point x="293" y="1269" type="curve" smooth="yes"/>
      <point x="365" y="1269"/>
      <point x="417" y="1326"/>
      <point x="417" y="1394" type="curve" smooth="yes"/>
      <point x="417" y="1464"/>
      <point x="365" y="1521"/>
      <point x="293" y="1521" type="curve" smooth="yes"/>
      <point x="222" y="1521"/>
      <point x="168" y="1464"/>
      <point x="168" y="1394" type="curve" smooth="yes"/>
      <point x="168" y="1327"/>
      <point x="221" y="1269"/>
    </contour>
  </outline>
</glyph>
<glyph name="n" format="1">
  <advance width="1245"/>
  <unicode hex="006E"/>
  <outline>
    <contour>
      <point x="668" y="1098" type="move" name="top"/>
    </contour>
    <contour>
      <point x="662" y="0" type="move" name="bot"/>
    </contour>
    <contour>
      <point x="159" y="0" type="line"/>
      <point x="374" y="0" type="line"/>
      <point x="374" y="811" type="line"/>
      <point x="451" y="887"/>
      <point x="551" y="956"/>
      <point x="689" y="956" type="curve" smooth="yes"/>
      <point x="849" y="956"/>
      <point x="882" y="829"/>
      <point x="882" y="683" type="curve" smooth="yes"/>
      <point x="882" y="0" type="line"/>
      <point x="1098" y="0" type="line"/>
      <point x="1098" y="687" type="line" smooth="yes"/>
      <point x="1098" y="953"/>
      <point x="982" y="1116"/>
      <point x="728" y="1116" type="curve" smooth="yes"/>
      <point x="564" y="1116"/>
      <point x="439" y="1037"/>
      <point x="349" y="950" type="curve"/>
      <point x="321" y="1096" type="line"/>
      <point x="159" y="1096" type="line"/>
    </contour>
  </outline>
</glyph>
<glyph name="q" format="1">
  <advance width="1226"/>
  <unicode hex="0071"/>
  <outline>
    <contour>
      <point x="1080" y="-429" type="line"/>
      <point x="1080" y="1096" type="line"/>
      <point x="922" y="1096" type="line"/>
      <point x="890" y="978" type="line"/>
      <point x="806" y="1062"/>
      <point x="689" y="1116"/>
      <point x="544" y="1116" type="curve" smooth="yes"/>
      <point x="258" y="1116"/>
      <point x="106" y="879"/>
      <point x="106" y="547" type="curve" smooth="yes"/>
      <point x="106" y="242"/>
      <point x="267" y="-20"/>
      <point x="573" y="-20" type="curve" smooth="yes"/>
      <point x="698" y="-20"/>
      <point x="791" y="26"/>
      <point x="861" y="86" type="curve"/>
      <point x="861" y="-458" type="line"/>
    </contour>
    <contour>
      <point x="603" y="128" type="curve" smooth="yes"/>
      <point x="404" y="128"/>
      <point x="317" y="299"/>
      <point x="317" y="550" type="curve" smooth="yes"/>
      <point x="317" y="819"/>
      <point x="412" y="960"/>
      <point x="595" y="961" type="curve" smooth="yes"/>
      <point x="694" y="961"/>
      <point x="786" y="924"/>
      <point x="861" y="862" type="curve"/>
      <point x="861" y="235" type="line"/>
      <point x="798" y="170"/>
      <point x="717" y="128"/>
    </contour>
  </outline>
</glyph>
<glyph name="r" format="1">
  <advance width="795"/>
  <unicode hex="0072"/>
  <outline>
    <contour>
      <point x="450" y="1098" type="move" name="top"/>
    </contour>
    <contour>
      <point x="442" y="0" type="move" name="bot"/>
    </contour>
    <contour>
      <point x="161" y="0" type="line"/>
      <point x="376" y="0" type="line"/>
      <point x="376" y="803" type="line"/>
      <point x="465" y="864"/>
      <point x="588" y="922"/>
      <point x="736" y="931" type="curve"/>
      <point x="715" y="1108" type="line"/>
      <point x="616" y="1108"/>
      <point x="469" y="1046"/>
      <point x="357" y="923" type="curve"/>
      <point x="324" y="1096" type="line"/>
      <point x="161" y="1096" type="line"/>
    </contour>
  </outline>
</glyph>
<glyph name="s" format="1">
  <advance width="1008"/>
  <unicode hex="0073"/>
  <outline>
    <contour>
      <point x="508" y="1099" type="move" name="top"/>
    </contour>
    <contour>
      <point x="515" y="-2" type="move" name="bot"/>
    </contour>
    <contour>
      <point x="711" y="288" type="curve" smooth="yes"/>
      <point x="707" y="171"/>
      <point x="604" y="138"/>
      <point x="504" y="138" type="curve" smooth="yes"/>
      <point x="403" y="138"/>
      <point x="279" y="187"/>
      <point x="190" y="245" type="curve"/>
      <point x="133" y="102" type="line"/>
      <point x="216" y="39"/>
      <point x="361" y="-20"/>
      <point x="524" y="-20" type="curve" smooth="yes"/>
      <point x="741" y="-20"/>
      <point x="914" y="77"/>
      <point x="914" y="317" type="curve" smooth="yes"/>
      <point x="915" y="491"/>
      <point x="818" y="565"/>
      <point x="639" y="625" type="curve" smooth="yes"/>
      <point x="445" y="688" type="line" smooth="yes"/>
      <point x="345" y="720"/>
      <point x="322" y="757"/>
      <point x="322" y="824" type="curve" smooth="yes"/>
      <point x="325" y="935"/>
      <point x="430" y="957"/>
      <point x="526" y="957" type="curve" smooth="yes"/>
      <point x="628" y="957"/>
      <point x="727" y="931"/>
      <point x="812" y="880" type="curve"/>
      <point x="876" y="1012" type="line"/>
      <point x="799" y="1068"/>
      <point x="671" y="1116"/>
      <point x="506" y="1116" type="curve" smooth="yes"/>
      <point x="298" y="1116"/>
      <point x="117" y="1016"/>
      <point x="117" y="816" type="curve" smooth="yes"/>
      <point x="117" y="653"/>
      <point x="208" y="572"/>
      <point x="366" y="522" type="curve" smooth="yes"/>
      <point x="577" y="455" type="line" smooth="yes"/>
      <point x="677" y="424"/>
      <point x="715" y="389"/>
    </contour>
  </outline>
</glyph>
<glyph name="u" format="1">
  <advance width="1262"/>
  <unicode hex="0075"/>
  <outline>
    <contour>
      <point x="632" y="1096" type="move" name="top"/>
    </contour>
    <contour>
      <point x="535" y="-20" type="curve" smooth="yes"/>
      <point x="729" y="-20"/>
      <point x="840" y="69"/>
      <point x="912" y="147" type="curve"/>
      <point x="941" y="0" type="line"/>
      <point x="1104" y="0" type="line"/>
      <point x="1104" y="1096" type="line"/>
      <point x="885" y="1096" type="line"/>
      <point x="885" y="283" type="line"/>
      <point x="808" y="203"/>
      <point x="729" y="134"/>
      <point x="568" y="134" type="curve" smooth="yes"/>
      <point x="414" y="134"/>
      <point x="367" y="247"/>
      <point x="367" y="392" type="curve" smooth="yes"/>
      <point x="367" y="1096" type="line"/>
      <point x="149" y="1096" type="line"/>
      <point x="149" y="406" type="line" smooth="yes"/>
      <point x="149" y="120"/>
      <point x="279" y="-20"/>
    </contour>
  </outline>
</glyph>
<glyph name="w" format="1">
  <advance width="1590"/>
  <unicode hex="0077"/>
  <outline>
    <contour>
      <point x="803" y="1096" type="move" name="top"/>
    </contour>
    <contour>
      <point x="1026" y="0" type="line"/>
      <point x="1249" y="0" type="line"/>
      <point x="1533" y="1096" type="line"/>
      <point x="1333" y="1096" type="line"/>
      <point x="1133" y="194" type="line"/>
      <point x="904" y="1096" type="line"/>
      <point x="701" y="1096" type="line"/>
      <point x="459" y="198" type="line"/>
      <point x="257" y="1096" type="line"/>
      <point x="57" y="1096" type="line"/>
      <point x="338" y="0" type="line"/>
      <point x="559" y="0" type="line"/>
      <point x="801" y="869" type="line"/>
    </contour>
  </outline>
</glyph>
<glyph name="z" format="1">
  <advance width="949"/>
  <unicode hex="007A"/>
  <outline>
    <contour>
      <point x="506" y="1096" type="move" name="top"/>
    </contour>
    <contour>
      <point x="100" y="0" type="line"/>
      <point x="854" y="0" type="line"/>
      <point x="854" y="165" type="line"/>
      <point x="336" y="165" type="line"/>
      <point x="859" y="955" type="line"/>
      <point x="859" y="1096" type="line"/>
      <point x="124" y="1096" type="line"/>
      <point x="124" y="934" type="line"/>
      <point x="633" y="934" type="line"/>
      <point x="100" y="150" type="line"/>
    </contour>
  </outline>
</glyph>
<glyph name="braceleft" format="1">
  <advance width="849"/>
  <unicode hex="007B"/>
  <outline>
    <contour>
      <point x="743" y="-176" type="curve"/>
      <point x="743" y="-31" type="line"/>
      <point x="574" y="-27"/>
      <point x="521" y="21"/>
      <point x="519" y="253" type="curve" smooth="yes"/>
      <point x="515" y="574"/>
      <point x="463" y="660"/>
      <point x="277" y="686" type="curve"/>
      <point x="463" y="712"/>
      <point x="515" y="798"/>
      <point x="519" y="1119" type="curve" smooth="yes"/>
      <point x="521" y="1352"/>
      <point x="576" y="1399"/>
      <point x="743" y="1404" type="curve"/>
      <point x="743" y="1549" type="line"/>
      <point x="405" y="1549"/>
      <point x="291" y="1476"/>
      <point x="291" y="1094" type="curve" smooth="yes"/>
      <point x="291" y="814"/>
      <point x="254" y="775"/>
      <point x="86" y="768" type="curve"/>
      <point x="86" y="605" type="line"/>
      <point x="251" y="598"/>
      <point x="291" y="558"/>
      <point x="291" y="279" type="curve" smooth="yes"/>
      <point x="291" y="-103"/>
      <point x="405" y="-176"/>
    </contour>
  </outline>
</glyph>
<glyph name="currency" format="1">
  <advance width="1186"/>
  <unicode hex="00A4"/>
  <outline>
    <contour>
      <point x="193" y="402" type="line"/>
      <point x="371" y="580" type="line"/>
      <point x="433" y="541"/>
      <point x="505" y="521"/>
      <point x="578" y="521" type="curve" smooth="yes"/>
      <point x="661" y="521"/>
      <point x="739" y="546"/>
      <point x="808" y="593" type="curve"/>
      <point x="999" y="402" type="line"/>
      <point x="1114" y="519" type="line"/>
      <point x="924" y="709" type="line"/>
      <point x="971" y="778"/>
      <point x="997" y="857"/>
      <point x="997" y="940" type="curve" smooth="yes"/>
      <point x="997" y="1014"/>
      <point x="977" y="1084"/>
      <point x="937" y="1146" type="curve"/>
      <point x="1114" y="1322" type="line"/>
      <point x="999" y="1438" type="line"/>
      <point x="823" y="1264" type="line"/>
      <point x="759" y="1306"/>
      <point x="685" y="1328"/>
      <point x="608" y="1328" type="curve" smooth="yes"/>
      <point x="524" y="1328"/>
      <point x="446" y="1303"/>
      <point x="376" y="1256" type="curve"/>
      <point x="193" y="1438" type="line"/>
      <point x="78" y="1322" type="line"/>
      <point x="260" y="1139" type="line"/>
      <point x="214" y="1071"/>
      <point x="189" y="993"/>
      <point x="189" y="910" type="curve" smooth="yes"/>
      <point x="189" y="833"/>
      <point x="211" y="759"/>
      <point x="253" y="695" type="curve"/>
      <point x="78" y="519" type="line"/>
    </contour>
    <contour>
      <point x="587" y="661" type="curve" smooth="yes"/>
      <point x="442" y="661"/>
      <point x="333" y="782"/>
      <point x="333" y="917" type="curve" smooth="yes"/>
      <point x="333" y="1059"/>
      <point x="450" y="1187"/>
      <point x="602" y="1187" type="curve" smooth="yes"/>
      <point x="745" y="1187"/>
      <point x="852" y="1067"/>
      <point x="852" y="933" type="curve" smooth="yes"/>
      <point x="852" y="793"/>
      <point x="736" y="661"/>
    </contour>
  </outline>
</glyph>
<glyph name="section" format="1">
  <advance width="1066"/>
  <unicode hex="00A7"/>
  <outline>
    <contour>
      <point x="511" y="-94" type="curve" smooth="yes"/>
      <point x="702" y="-94"/>
      <point x="909" y="-17"/>
      <point x="909" y="208" type="curve" smooth="yes"/>
      <point x="909" y="349"/>
      <point x="828" y="436"/>
      <point x="688" y="486" type="curve"/>
      <point x="804" y="501"/>
      <point x="907" y="580"/>
      <point x="907" y="701" type="curve" smooth="yes"/>
      <point x="907" y="877"/>
      <point x="789" y="952"/>
      <point x="608" y="1015" type="curve" smooth="yes"/>
      <point x="492" y="1055" type="line" smooth="yes"/>
      <point x="386" y="1092"/>
      <point x="320" y="1123"/>
      <point x="320" y="1191" type="curve" smooth="yes"/>
      <point x="320" y="1299"/>
      <point x="427" y="1322"/>
      <point x="525" y="1322" type="curve" smooth="yes"/>
      <point x="626" y="1322"/>
      <point x="728" y="1285"/>
      <point x="805" y="1229" type="curve"/>
      <point x="864" y="1372" type="line"/>
      <point x="782" y="1435"/>
      <point x="609" y="1482"/>
      <point x="507" y="1482" type="curve" smooth="yes"/>
      <point x="332" y="1482"/>
      <point x="141" y="1403"/>
      <point x="141" y="1206" type="curve" smooth="yes"/>
      <point x="141" y="1057"/>
      <point x="232" y="990"/>
      <point x="365" y="939" type="curve"/>
      <point x="244" y="919"/>
      <point x="141" y="842"/>
      <point x="141" y="724" type="curve" smooth="yes"/>
      <point x="141" y="538"/>
      <point x="257" y="475"/>
      <point x="433" y="419" type="curve" smooth="yes"/>
      <point x="527" y="389" type="line"/>
      <point x="645" y="353"/>
      <point x="725" y="319"/>
      <point x="725" y="216" type="curve" smooth="yes"/>
      <point x="725" y="100"/>
      <point x="609" y="62"/>
      <point x="498" y="62" type="curve" smooth="yes"/>
      <point x="397" y="62"/>
      <point x="280" y="105"/>
      <point x="209" y="164" type="curve"/>
      <point x="147" y="20" type="line"/>
      <point x="230" y="-49"/>
      <point x="414" y="-94"/>
    </contour>
    <contour>
      <point x="519" y="576" type="curve" smooth="yes"/>
      <point x="417" y="576"/>
      <point x="310" y="598"/>
      <point x="310" y="708" type="curve" smooth="yes"/>
      <point x="310" y="821"/>
      <point x="415" y="839"/>
      <point x="519" y="839" type="curve" smooth="yes"/>
      <point x="625" y="839"/>
      <point x="732" y="824"/>
      <point x="732" y="706" type="curve" smooth="yes"/>
      <point x="732" y="599"/>
      <point x="619" y="576"/>
    </contour>
  </outline>
</glyph>
<glyph name="copyright" format="1">
  <advance width="1819"/>
  <unicode hex="00A9"/>
  <outline>
    <contour>
      <point x="903" y="1248" type="curve" smooth="yes"/>
      <point x="609" y="1243"/>
      <point x="425" y="1051"/>
      <point x="425" y="761" type="curve" smooth="yes"/>
      <point x="425" y="465"/>
      <point x="613" y="272"/>
      <point x="913" y="272" type="curve" smooth="yes"/>
      <point x="1048" y="272"/>
      <point x="1195" y="325"/>
      <point x="1275" y="401" type="curve"/>
      <point x="1217" y="489" type="line"/>
      <point x="1142" y="416"/>
      <point x="1027" y="372"/>
      <point x="919" y="372" type="curve" smooth="yes"/>
      <point x="701" y="372"/>
      <point x="568" y="518"/>
      <point x="568" y="761" type="curve" smooth="yes"/>
      <point x="568" y="999"/>
      <point x="697" y="1144"/>
      <point x="905" y="1148" type="curve" smooth="yes"/>
      <point x="1019" y="1151"/>
      <point x="1135" y="1110"/>
      <point x="1208" y="1038" type="curve"/>
      <point x="1277" y="1118" type="line"/>
      <point x="1198" y="1197"/>
      <point x="1047" y="1251"/>
    </contour>
    <contour>
      <point x="910" y="94" type="curve" smooth="yes"/>
      <point x="502" y="94"/>
      <point x="246" y="341"/>
      <point x="246" y="749" type="curve" smooth="yes"/>
      <point x="246" y="1156"/>
      <point x="502" y="1405"/>
      <point x="910" y="1405" type="curve" smooth="yes"/>
      <point x="1319" y="1405"/>
      <point x="1574" y="1156"/>
      <point x="1574" y="749" type="curve" smooth="yes"/>
      <point x="1574" y="341"/>
      <point x="1319" y="94"/>
    </contour>
    <contour>
      <point x="910" y="-16" type="curve" smooth="yes"/>
      <point x="1401" y="-16"/>
      <point x="1713" y="284"/>
      <point x="1713" y="749" type="curve" smooth="yes"/>
      <point x="1713" y="1213"/>
      <point x="1401" y="1514"/>
      <point x="910" y="1514" type="curve" smooth="yes"/>
      <point x="419" y="1514"/>
      <point x="107" y="1213"/>
      <point x="107" y="749" type="curve" smooth="yes"/>
      <point x="107" y="284"/>
      <point x="419" y="-16"/>
    </contour>
  </outline>
</glyph>
<glyph name="uni00AD" format="1">
  <advance width="874"/>
  <unicode hex="00AD"/>
  <outline>
    <contour>
      <point x="171" y="495" type="line"/>
      <point x="692" y="495" type="line"/>
      <point x="692" y="650" type="line"/>
      <point x="171" y="650" type="line"/>
    </contour>
  </outline>
</glyph>
<glyph name="registered" format="1">
  <advance width="1819"/>
  <unicode hex="00AE"/>
  <outline>
    <contour>
      <point x="630" y="353" type="line"/>
      <point x="755" y="353" type="line"/>
      <point x="755" y="726" type="line"/>
      <point x="888" y="726" type="line" smooth="yes"/>
      <point x="1054" y="726"/>
      <point x="1090" y="688"/>
      <point x="1099" y="556" type="curve" smooth="yes"/>
      <point x="1115" y="353" type="line"/>
      <point x="1233" y="353" type="line"/>
      <point x="1219" y="576" type="line" smooth="yes"/>
      <point x="1211" y="693"/>
      <point x="1156" y="767"/>
      <point x="1058" y="775" type="curve"/>
      <point x="1156" y="792"/>
      <point x="1229" y="850"/>
      <point x="1229" y="960" type="curve" smooth="yes"/>
      <point x="1229" y="1157"/>
      <point x="1086" y="1178"/>
      <point x="858" y="1178" type="curve" smooth="yes"/>
      <point x="630" y="1178" type="line"/>
    </contour>
    <contour>
      <point x="755" y="810" type="line"/>
      <point x="755" y="1092" type="line"/>
      <point x="861" y="1092" type="line" smooth="yes"/>
      <point x="997" y="1092"/>
      <point x="1112" y="1095"/>
      <point x="1112" y="950" type="curve" smooth="yes"/>
      <point x="1112" y="823"/>
      <point x="1020" y="810"/>
      <point x="916" y="810" type="curve" smooth="yes"/>
    </contour>
    <contour>
      <point x="910" y="94" type="curve" smooth="yes"/>
      <point x="502" y="94"/>
      <point x="247" y="341"/>
      <point x="247" y="749" type="curve" smooth="yes"/>
      <point x="247" y="1156"/>
      <point x="502" y="1405"/>
      <point x="910" y="1405" type="curve" smooth="yes"/>
      <point x="1319" y="1405"/>
      <point x="1575" y="1156"/>
      <point x="1575" y="749" type="curve" smooth="yes"/>
      <point x="1575" y="341"/>
      <point x="1319" y="94"/>
    </contour>
    <contour>
      <point x="910" y="-16" type="curve" smooth="yes"/>
      <point x="1401" y="-16"/>
      <point x="1713" y="284"/>
      <point x="1713" y="749" type="curve" smooth="yes"/>
      <point x="1713" y="1213"/>
      <point x="1401" y="1514"/>
      <point x="910" y="1514" type="curve" smooth="yes"/>
      <point x="419" y="1514"/>
      <point x="107" y="1213"/>
      <point x="107" y="749" type="curve" smooth="yes"/>
      <point x="107" y="284"/>
      <point x="419" y="-16"/>
    </contour>
  </outline>
</glyph>
<glyph name="macron" format="1">
  <advance width="867"/>
  <unicode hex="00AF"/>
  <outline>
    <contour>
      <point x="438" y="1098" type="move" name="_top"/>
    </contour>
    <contour>
      <point x="437" y="1313" type="move" name="_mid"/>
    </contour>
    <contour>
      <point x="112" y="1252" type="line"/>
      <point x="751" y="1252" type="line"/>
      <point x="751" y="1373" type="line"/>
      <point x="112" y="1373" type="line"/>
    </contour>
  </outline>
</glyph>
<glyph name="degree" format="1">
  <advance width="801"/>
  <unicode hex="00B0"/>
  <outline>
    <contour>
      <point x="394" y="729" type="curve" smooth="yes"/>
      <point x="314" y="729"/>
      <point x="250" y="795"/>
      <point x="250" y="875" type="curve" smooth="yes"/>
      <point x="250" y="956"/>
      <point x="312" y="1022"/>
      <point x="394" y="1022" type="curve" smooth="yes"/>
      <point x="476" y="1022"/>
      <point x="537" y="957"/>
      <point x="537" y="875" type="curve" smooth="yes"/>
      <point x="537" y="794"/>
      <point x="477" y="729"/>
    </contour>
    <contour>
      <point x="393" y="626" type="curve" smooth="yes"/>
      <point x="536" y="626"/>
      <point x="649" y="729"/>
      <point x="649" y="875" type="curve" smooth="yes"/>
      <point x="649" y="1018"/>
      <point x="539" y="1126"/>
      <point x="396" y="1126" type="curve" smooth="yes"/>
      <point x="253" y="1126"/>
      <point x="136" y="1022"/>
      <point x="136" y="876" type="curve" smooth="yes"/>
      <point x="136" y="732"/>
      <point x="251" y="626"/>
    </contour>
  </outline>
</glyph>
<glyph name="plusminus" format="1">
  <advance width="1009"/>
  <unicode hex="00B1"/>
  <outline>
    <contour>
      <point x="421" y="224" type="line"/>
      <point x="589" y="224" type="line"/>
      <point x="589" y="550" type="line"/>
      <point x="891" y="550" type="line"/>
      <point x="891" y="703" type="line"/>
      <point x="589" y="703" type="line"/>
      <point x="589" y="1029" type="line"/>
      <point x="421" y="1029" type="line"/>
      <point x="421" y="703" type="line"/>
      <point x="120" y="703" type="line"/>
      <point x="120" y="550" type="line"/>
      <point x="421" y="550" type="line"/>
    </contour>
    <contour>
      <point x="157" y="-42" type="line"/>
      <point x="855" y="-42" type="line"/>
      <point x="855" y="117" type="line"/>
      <point x="157" y="117" type="line"/>
    </contour>
  </outline>
</glyph>
<glyph name="uni00B2" format="1">
  <advance width="1052"/>
  <unicode hex="00B2"/>
  <outline>
    <contour>
      <point x="168" y="577" type="line"/>
      <point x="876" y="577" type="line"/>
      <point x="876" y="715" type="line"/>
      <point x="391" y="715" type="line"/>
      <point x="614" y="908" type="line" smooth="yes"/>
      <point x="758" y="1036"/>
      <point x="879" y="1159"/>
      <point x="879" y="1321" type="curve" smooth="yes"/>
      <point x="879" y="1545"/>
      <point x="707" y="1638"/>
      <point x="515" y="1638" type="curve" smooth="yes"/>
      <point x="399" y="1638"/>
      <point x="279" y="1603"/>
      <point x="188" y="1545" type="curve"/>
      <point x="245" y="1421" type="line"/>
      <point x="327" y="1463"/>
      <point x="425" y="1492"/>
      <point x="510" y="1492" type="curve" smooth="yes"/>
      <point x="620" y="1492"/>
      <point x="710" y="1445"/>
      <point x="710" y="1316" type="curve" smooth="yes"/>
      <point x="710" y="1184"/>
      <point x="607" y="1103"/>
      <point x="508" y="1013" type="curve" smooth="yes"/>
      <point x="168" y="705" type="line"/>
    </contour>
  </outline>
</glyph>
<glyph name="uni00B3" format="1">
  <advance width="1124"/>
  <unicode hex="00B3"/>
  <outline>
    <contour>
      <point x="538" y="484" type="curve" smooth="yes"/>
      <point x="727" y="484"/>
      <point x="925" y="575"/>
      <point x="925" y="791" type="curve" smooth="yes"/>
      <point x="925" y="943"/>
      <point x="833" y="1059"/>
      <point x="666" y="1092" type="curve"/>
      <point x="801" y="1098"/>
      <point x="891" y="1224"/>
      <point x="891" y="1353" type="curve" smooth="yes"/>
      <point x="891" y="1562"/>
      <point x="707" y="1636"/>
      <point x="525" y="1636" type="curve" smooth="yes"/>
      <point x="425" y="1636"/>
      <point x="309" y="1607"/>
      <point x="217" y="1564" type="curve"/>
      <point x="269" y="1436" type="line"/>
      <point x="347" y="1476"/>
      <point x="431" y="1497"/>
      <point x="512" y="1497" type="curve" smooth="yes"/>
      <point x="632" y="1497"/>
      <point x="727" y="1460"/>
      <point x="727" y="1329" type="curve" smooth="yes"/>
      <point x="727" y="1193"/>
      <point x="605" y="1153"/>
      <point x="477" y="1153" type="curve"/>
      <point x="477" y="1024" type="line"/>
      <point x="604" y="1011"/>
      <point x="747" y="959"/>
      <point x="747" y="807" type="curve" smooth="yes"/>
      <point x="747" y="671"/>
      <point x="654" y="619"/>
      <point x="529" y="619" type="curve" smooth="yes"/>
      <point x="440" y="619"/>
      <point x="332" y="647"/>
      <point x="250" y="690" type="curve"/>
      <point x="202" y="561" type="line"/>
      <point x="306" y="511"/>
      <point x="423" y="484"/>
    </contour>
  </outline>
</glyph>
<glyph name="periodcentered" format="1">
  <advance width="651"/>
  <unicode hex="00B7"/>
  <outline>
    <contour>
      <point x="434" y="527" type="curve" smooth="yes"/>
      <point x="505" y="527"/>
      <point x="557" y="585"/>
      <point x="557" y="654" type="curve" smooth="yes"/>
      <point x="557" y="724"/>
      <point x="505" y="782"/>
      <point x="434" y="782" type="curve" smooth="yes"/>
      <point x="363" y="782"/>
      <point x="309" y="724"/>
      <point x="309" y="654" type="curve" smooth="yes"/>
      <point x="309" y="585"/>
      <point x="362" y="527"/>
    </contour>
  </outline>
</glyph>
<glyph name="uni00B9" format="1">
  <advance width="856"/>
  <unicode hex="00B9"/>
  <outline>
    <contour>
      <point x="438" y="577" type="line"/>
      <point x="623" y="577" type="line"/>
      <point x="623" y="1573" type="line"/>
      <point x="464" y="1592" type="line"/>
      <point x="232" y="1498" type="line"/>
      <point x="277" y="1372" type="line"/>
      <point x="438" y="1443" type="line"/>
    </contour>
  </outline>
</glyph>
<glyph name="onequarter" format="1">
  <advance width="1865"/>
  <unicode hex="00BC"/>
  <outline>
    <contour>
      <point x="1643" y="-17" type="line"/>
      <point x="1643" y="229" type="line"/>
      <point x="1782" y="229" type="line"/>
      <point x="1782" y="353" type="line"/>
      <point x="1643" y="353" type="line"/>
      <point x="1643" y="1019" type="line"/>
      <point x="1498" y="1054" type="line"/>
      <point x="996" y="345" type="line"/>
      <point x="1019" y="229" type="line"/>
      <point x="1486" y="229" type="line"/>
      <point x="1486" y="0" type="line"/>
    </contour>
    <contour>
      <point x="328" y="620" type="line"/>
      <point x="502" y="620" type="line"/>
      <point x="502" y="1497" type="line"/>
      <point x="368" y="1525" type="line"/>
      <point x="123" y="1422" type="line"/>
      <point x="165" y="1314" type="line"/>
      <point x="328" y="1386" type="line"/>
    </contour>
    <contour>
      <point x="489" y="-41" type="line"/>
      <point x="1459" y="1512" type="line"/>
      <point x="1336" y="1582" type="line"/>
      <point x="366" y="27" type="line"/>
    </contour>
    <contour>
      <point x="1162" y="352" type="line"/>
      <point x="1486" y="822" type="line"/>
      <point x="1486" y="352" type="line"/>
    </contour>
  </outline>
</glyph>
<glyph name="onehalf" format="1">
  <advance width="1971"/>
  <unicode hex="00BD"/>
  <outline>
    <contour>
      <point x="1199" y="-1" type="line"/>
      <point x="1813" y="-1" type="line"/>
      <point x="1813" y="140" type="line"/>
      <point x="1429" y="140" type="line"/>
      <point x="1465" y="171"/>
      <point x="1529" y="218"/>
      <point x="1576" y="255" type="curve"/>
      <point x="1710" y="361"/>
      <point x="1827" y="480"/>
      <point x="1827" y="624" type="curve" smooth="yes"/>
      <point x="1827" y="819"/>
      <point x="1676" y="895"/>
      <point x="1501" y="895" type="curve" smooth="yes"/>
      <point x="1398" y="895"/>
      <point x="1289" y="867"/>
      <point x="1200" y="821" type="curve"/>
      <point x="1220" y="677" type="line"/>
      <point x="1302" y="718"/>
      <point x="1401" y="749"/>
      <point x="1484" y="749" type="curve" smooth="yes"/>
      <point x="1575" y="749"/>
      <point x="1645" y="713"/>
      <point x="1645" y="616" type="curve" smooth="yes"/>
      <point x="1645" y="518"/>
      <point x="1585" y="452"/>
      <point x="1475" y="361" type="curve" smooth="yes"/>
      <point x="1419" y="315"/>
      <point x="1283" y="211"/>
      <point x="1199" y="136" type="curve"/>
    </contour>
    <contour>
      <point x="331" y="620" type="line"/>
      <point x="505" y="620" type="line"/>
      <point x="505" y="1497" type="line"/>
      <point x="372" y="1525" type="line"/>
      <point x="127" y="1422" type="line"/>
      <point x="169" y="1314" type="line"/>
      <point x="331" y="1386" type="line"/>
    </contour>
    <contour>
      <point x="493" y="-41" type="line"/>
      <point x="1463" y="1512" type="line"/>
      <point x="1339" y="1582" type="line"/>
      <point x="370" y="27" type="line"/>
    </contour>
  </outline>
</glyph>
<glyph name="threequarters" format="1">
  <advance width="2085"/>
  <unicode hex="00BE"/>
  <outline>
    <contour>
      <point x="423" y="549" type="curve" smooth="yes"/>
      <point x="587" y="549"/>
      <point x="754" y="628"/>
      <point x="754" y="817" type="curve" smooth="yes"/>
      <point x="754" y="935"/>
      <point x="691" y="1044"/>
      <point x="536" y="1071" type="curve"/>
      <point x="661" y="1092"/>
      <point x="725" y="1193"/>
      <point x="725" y="1295" type="curve" smooth="yes"/>
      <point x="725" y="1477"/>
      <point x="564" y="1541"/>
      <point x="406" y="1541" type="curve" smooth="yes"/>
      <point x="316" y="1541"/>
      <point x="211" y="1514"/>
      <point x="133" y="1475" type="curve"/>
      <point x="183" y="1352" type="line"/>
      <point x="251" y="1388"/>
      <point x="321" y="1407"/>
      <point x="391" y="1407" type="curve" smooth="yes"/>
      <point x="491" y="1407"/>
      <point x="564" y="1378"/>
      <point x="564" y="1274" type="curve" smooth="yes"/>
      <point x="564" y="1162"/>
      <point x="463" y="1128"/>
      <point x="353" y="1130" type="curve"/>
      <point x="353" y="1013" type="line"/>
      <point x="460" y="1003"/>
      <point x="587" y="956"/>
      <point x="586" y="831" type="curve" smooth="yes"/>
      <point x="586" y="723"/>
      <point x="508" y="681"/>
      <point x="406" y="681" type="curve" smooth="yes"/>
      <point x="330" y="681"/>
      <point x="238" y="705"/>
      <point x="169" y="744" type="curve"/>
      <point x="121" y="618" type="line"/>
      <point x="211" y="574"/>
      <point x="323" y="549"/>
    </contour>
    <contour>
      <point x="1825" y="-17" type="line"/>
      <point x="1825" y="229" type="line"/>
      <point x="1964" y="229" type="line"/>
      <point x="1964" y="353" type="line"/>
      <point x="1825" y="353" type="line"/>
      <point x="1825" y="1055" type="line"/>
      <point x="1693" y="1090" type="line"/>
      <point x="1173" y="345" type="line"/>
      <point x="1196" y="229" type="line"/>
      <point x="1677" y="229" type="line"/>
      <point x="1677" y="0" type="line"/>
    </contour>
    <contour>
      <point x="652" y="-41" type="line"/>
      <point x="1623" y="1512" type="line"/>
      <point x="1498" y="1582" type="line"/>
      <point x="529" y="27" type="line"/>
    </contour>
    <contour>
      <point x="1334" y="352" type="line"/>
      <point x="1677" y="850" type="line"/>
      <point x="1677" y="352" type="line"/>
    </contour>
  </outline>
</glyph>
<glyph name="AE" format="1">
  <advance width="1745"/>
  <unicode hex="00C6"/>
  <outline>
    <contour>
      <point x="1150" y="1486" type="move" name="top"/>
    </contour>
    <contour>
      <point x="-28" y="0" type="line"/>
      <point x="215" y="0" type="line"/>
      <point x="385" y="340" type="line"/>
      <point x="878" y="340" type="line"/>
      <point x="878" y="0" type="line"/>
      <point x="1705" y="0" type="line"/>
      <point x="1705" y="166" type="line"/>
      <point x="1083" y="166" type="line"/>
      <point x="1083" y="704" type="line"/>
      <point x="1630" y="704" type="line"/>
      <point x="1630" y="849" type="line"/>
      <point x="1081" y="849" type="line"/>
      <point x="1081" y="1322" type="line"/>
      <point x="1685" y="1322" type="line"/>
      <point x="1685" y="1487" type="line"/>
      <point x="728" y="1487" type="line"/>
    </contour>
    <contour>
      <point x="448" y="481" type="line"/>
      <point x="876" y="1343" type="line"/>
      <point x="876" y="481" type="line"/>
    </contour>
  </outline>
</glyph>
<glyph name="germandbls" format="1">
  <advance width="1355"/>
  <unicode hex="00DF"/>
  <outline>
    <contour>
      <point x="527" y="-137" type="line"/>
      <point x="881" y="-137"/>
      <point x="1278" y="-33"/>
      <point x="1278" y="362" type="curve" smooth="yes"/>
      <point x="1278" y="616"/>
      <point x="1128" y="780"/>
      <point x="858" y="789" type="curve"/>
      <point x="1039" y="811"/>
      <point x="1113" y="950"/>
      <point x="1113" y="1103" type="curve" smooth="yes"/>
      <point x="1113" y="1356"/>
      <point x="944" y="1486"/>
      <point x="629" y="1487" type="curve" smooth="yes"/>
      <point x="274" y="1487"/>
      <point x="148" y="1302"/>
      <point x="148" y="970" type="curve" smooth="yes"/>
      <point x="149" y="-4" type="line"/>
      <point x="375" y="10" type="line"/>
      <point x="375" y="953" type="line" smooth="yes"/>
      <point x="375" y="1174"/>
      <point x="393" y="1329"/>
      <point x="629" y="1329" type="curve" smooth="yes"/>
      <point x="808" y="1329"/>
      <point x="914" y="1266"/>
      <point x="914" y="1114" type="curve" smooth="yes"/>
      <point x="914" y="889"/>
      <point x="759" y="847"/>
      <point x="559" y="852" type="curve"/>
      <point x="550" y="852"/>
      <point x="522" y="852"/>
      <point x="512" y="853" type="curve"/>
      <point x="512" y="815"/>
      <point x="512" y="709"/>
      <point x="512" y="708" type="curve"/>
      <point x="756" y="708"/>
      <point x="1062" y="670"/>
      <point x="1062" y="389" type="curve" smooth="yes"/>
      <point x="1062" y="95"/>
      <point x="846" y="47"/>
      <point x="526" y="39" type="curve"/>
    </contour>
  </outline>
</glyph>
<glyph name="eth" format="1">
  <advance width="1189"/>
  <unicode hex="00F0"/>
  <outline>
    <contour>
      <point x="572" y="-19" type="curve" smooth="yes"/>
      <point x="951" y="-19"/>
      <point x="1079" y="273"/>
      <point x="1079" y="633" type="curve" smooth="yes"/>
      <point x="1079" y="928"/>
      <point x="985" y="1154"/>
      <point x="826" y="1357" type="curve"/>
      <point x="1056" y="1446" type="line"/>
      <point x="1003" y="1537" type="line"/>
      <point x="750" y="1440" type="line"/>
      <point x="671" y="1518"/>
      <point x="585" y="1591"/>
      <point x="486" y="1648" type="curve"/>
      <point x="393" y="1535" type="line"/>
      <point x="462" y="1493"/>
      <point x="538" y="1429"/>
      <point x="597" y="1370" type="curve"/>
      <point x="420" y="1303" type="line"/>
      <point x="471" y="1216" type="line"/>
      <point x="673" y="1291" type="line"/>
      <point x="754" y="1201"/>
      <point x="828" y="1088"/>
      <point x="859" y="966" type="curve"/>
      <point x="786" y="1053"/>
      <point x="654" y="1108"/>
      <point x="530" y="1108" type="curve" smooth="yes"/>
      <point x="243" y="1108"/>
      <point x="99" y="840"/>
      <point x="99" y="553" type="curve" smooth="yes"/>
      <point x="99" y="224"/>
      <point x="257" y="-19"/>
    </contour>
    <contour>
      <point x="567" y="133" type="curve" smooth="yes"/>
      <point x="354" y="133"/>
      <point x="310" y="346"/>
      <point x="310" y="543" type="curve" smooth="yes"/>
      <point x="310" y="767"/>
      <point x="358" y="955"/>
      <point x="585" y="955" type="curve" smooth="yes"/>
      <point x="773" y="955"/>
      <point x="865" y="801"/>
      <point x="865" y="602" type="curve" smooth="yes"/>
      <point x="865" y="367"/>
      <point x="823" y="133"/>
    </contour>
  </outline>
</glyph>
<glyph name="divide" format="1">
  <advance width="1009"/>
  <unicode hex="00F7"/>
  <outline>
    <contour>
      <point x="502" y="195" type="curve" smooth="yes"/>
      <point x="575" y="195"/>
      <point x="623" y="250"/>
      <point x="623" y="320" type="curve" smooth="yes"/>
      <point x="623" y="391"/>
      <point x="575" y="445"/>
      <point x="502" y="445" type="curve" smooth="yes"/>
      <point x="430" y="445"/>
      <point x="377" y="391"/>
      <point x="377" y="320" type="curve" smooth="yes"/>
      <point x="377" y="249"/>
      <point x="429" y="195"/>
    </contour>
    <contour>
      <point x="99" y="582" type="line"/>
      <point x="909" y="582" type="line"/>
      <point x="909" y="731" type="line"/>
      <point x="99" y="731" type="line"/>
    </contour>
    <contour>
      <point x="503" y="864" type="curve" smooth="yes"/>
      <point x="576" y="864"/>
      <point x="624" y="919"/>
      <point x="624" y="989" type="curve" smooth="yes"/>
      <point x="624" y="1060"/>
      <point x="576" y="1116"/>
      <point x="503" y="1116" type="curve" smooth="yes"/>
      <point x="431" y="1116"/>
      <point x="378" y="1060"/>
      <point x="378" y="989" type="curve" smooth="yes"/>
      <point x="378" y="918"/>
      <point x="430" y="864"/>
    </contour>
  </outline>
</glyph>
<glyph name="dotlessi" format="1">
  <advance width="630"/>
  <unicode hex="0131"/>
  <outline>
    <contour>
      <point x="324" y="1098" type="move" name="top"/>
    </contour>
    <contour>
      <point x="205" y="0" type="line"/>
      <point x="418" y="0" type="line"/>
      <point x="418" y="1099" type="line"/>
      <point x="205" y="1099" type="line"/>
    </contour>
  </outline>
</glyph>
<glyph name="Lslash" format="1">
  <advance width="1136"/>
  <unicode hex="0141"/>
  <outline>
    <contour>
      <point x="1" y="429" type="line"/>
      <point x="654" y="866" type="line"/>
      <point x="654" y="1031" type="line"/>
      <point x="1" y="594" type="line"/>
    </contour>
    <component base="L"/>
  </outline>
</glyph>
<glyph name="lslash" format="1">
  <advance width="561"/>
  <unicode hex="0142"/>
  <outline>
    <contour>
      <point x="-13" y="519" type="line"/>
      <point x="557" y="860" type="line"/>
      <point x="557" y="1002" type="line"/>
      <point x="-13" y="651" type="line"/>
    </contour>
    <component base="l"/>
  </outline>
</glyph>
<glyph name="florin" format="1">
  <advance width="1113"/>
  <unicode hex="0192"/>
  <outline>
    <contour>
      <point x="334" y="0" type="line"/>
      <point x="548" y="0" type="line"/>
      <point x="667" y="961" type="line"/>
      <point x="976" y="961" type="line"/>
      <point x="987" y="1073" type="line"/>
      <point x="679" y="1073" type="line"/>
      <point x="708" y="1293"/>
      <point x="760" y="1366"/>
      <point x="868" y="1366" type="curve" smooth="yes"/>
      <point x="911" y="1366"/>
      <point x="962" y="1359"/>
      <point x="1022" y="1340" type="curve"/>
      <point x="1057" y="1493" type="line"/>
      <point x="972" y="1520"/>
      <point x="895" y="1536"/>
      <point x="825" y="1536" type="curve" smooth="yes"/>
      <point x="631" y="1536"/>
      <point x="499" y="1411"/>
      <point x="460" y="1073" type="curve"/>
      <point x="279" y="1073" type="line"/>
      <point x="268" y="961" type="line"/>
      <point x="449" y="961" type="line"/>
    </contour>
  </outline>
</glyph>
<glyph name="uni0237" format="1">
  <advance width="831"/>
  <unicode hex="0237"/>
  <outline>
    <contour>
      <point x="505" y="1098" type="move" name="top"/>
    </contour>
    <contour>
      <point x="271" y="-376" type="line"/>
      <point x="509" y="-318"/>
      <point x="610" y="-111"/>
      <point x="610" y="115" type="curve" smooth="yes"/>
      <point x="610" y="1099" type="line"/>
      <point x="391" y="1099" type="line"/>
      <point x="391" y="1099"/>
      <point x="391" y="150"/>
      <point x="391" y="150" type="curve" smooth="yes"/>
      <point x="391" y="-30"/>
      <point x="380" y="-137"/>
      <point x="210" y="-237" type="curve"/>
    </contour>
  </outline>
</glyph>
<glyph name="caron" format="1">
  <advance width="954"/>
  <unicode hex="02C7"/>
  <outline>
    <contour>
      <point x="472" y="1098" type="move" name="_top"/>
    </contour>
    <contour>
      <point x="380" y="1270" type="line"/>
      <point x="555" y="1270" type="line"/>
      <point x="813" y="1686" type="line"/>
      <point x="625" y="1686" type="line"/>
      <point x="468" y="1418" type="line"/>
      <point x="311" y="1686" type="line"/>
      <point x="124" y="1686" type="line"/>
    </contour>
  </outline>
</glyph>
<glyph name="dotaccent" format="1">
  <advance width="604"/>
  <unicode hex="02D9"/>
  <outline>
    <contour>
      <point x="304" y="1098" type="move" name="_top"/>
    </contour>
    <contour>
      <point x="300" y="1264" type="curve" smooth="yes"/>
      <point x="372" y="1264"/>
      <point x="423" y="1314"/>
      <point x="423" y="1391" type="curve" smooth="yes"/>
      <point x="423" y="1468"/>
      <point x="372" y="1519"/>
      <point x="300" y="1519" type="curve" smooth="yes"/>
      <point x="225" y="1519"/>
      <point x="174" y="1468"/>
      <point x="174" y="1391" type="curve" smooth="yes"/>
      <point x="174" y="1315"/>
      <point x="224" y="1264"/>
    </contour>
  </outline>
</glyph>
<glyph name="uni0311" format="1">
  <advance width="759"/>
  <unicode hex="0311"/>
  <outline>
    <contour>
      <point x="395" y="1098" type="move" name="_top"/>
    </contour>
    <contour>
      <point x="109" y="1239" type="curve"/>
      <point x="243" y="1239" type="line"/>
      <point x="244" y="1313"/>
      <point x="297" y="1355"/>
      <point x="389" y="1355" type="curve" smooth="yes"/>
      <point x="482" y="1355"/>
      <point x="537" y="1313"/>
      <point x="537" y="1239" type="curve"/>
      <point x="671" y="1239" type="line"/>
      <point x="668" y="1395"/>
      <point x="565" y="1484"/>
      <point x="388" y="1484" type="curve" smooth="yes"/>
      <point x="214" y="1484"/>
      <point x="111" y="1395"/>
    </contour>
  </outline>
</glyph>
<glyph name="uni0326" format="1">
  <advance width="683"/>
  <unicode hex="0326"/>
  <outline>
    <contour>
      <point x="392" y="0" type="move" name="_bot"/>
    </contour>
    <contour>
      <point x="278" y="-610" type="line"/>
      <point x="419" y="-569"/>
      <point x="499" y="-483"/>
      <point x="499" y="-316" type="curve" smooth="yes"/>
      <point x="499" y="-108" type="line"/>
      <point x="271" y="-108" type="line"/>
      <point x="271" y="-359" type="line"/>
      <point x="376" y="-359" type="line"/>
      <point x="377" y="-450"/>
      <point x="329" y="-508"/>
      <point x="238" y="-540" type="curve"/>
    </contour>
  </outline>
</glyph>
<glyph name="uni0358" format="1">
  <advance width="604"/>
  <unicode hex="0358"/>
  <outline>
    <contour>
      <point x="296" y="1098" type="move" name="_top"/>
    </contour>
    <contour>
      <point x="297" y="1259" type="curve" smooth="yes"/>
      <point x="373" y="1259"/>
      <point x="420" y="1307"/>
      <point x="420" y="1386" type="curve" smooth="yes"/>
      <point x="420" y="1465"/>
      <point x="373" y="1514"/>
      <point x="297" y="1514" type="curve" smooth="yes"/>
      <point x="220" y="1514"/>
      <point x="171" y="1465"/>
      <point x="171" y="1386" type="curve" smooth="yes"/>
      <point x="171" y="1307"/>
      <point x="220" y="1259"/>
    </contour>
  </outline>
</glyph>
<glyph name="Sigma" format="1">
  <advance width="1315"/>
  <unicode hex="03A3"/>
  <outline>
    <contour>
      <point x="149" y="0" type="line"/>
      <point x="1213" y="0" type="line"/>
      <point x="1213" y="169" type="line"/>
      <point x="380" y="169" type="line"/>
      <point x="1020" y="689" type="line"/>
      <point x="1020" y="811" type="line"/>
      <point x="385" y="1325" type="line"/>
      <point x="1183" y="1325" type="line"/>
      <point x="1183" y="1485" type="line"/>
      <point x="150" y="1485" type="line"/>
      <point x="150" y="1266" type="line"/>
      <point x="792" y="739" type="line"/>
      <point x="149" y="189" type="line"/>
    </contour>
  </outline>
</glyph>
<glyph name="uni03BC" format="1">
  <advance width="1243"/>
  <unicode hex="03BC"/>
  <outline>
    <contour>
      <point x="359" y="-288" type="line"/>
      <point x="359" y="88" type="line"/>
      <point x="409" y="27"/>
      <point x="475" y="-17"/>
      <point x="560" y="-17" type="curve" smooth="yes"/>
      <point x="698" y="-17"/>
      <point x="819" y="48"/>
      <point x="902" y="158" type="curve"/>
      <point x="939" y="0" type="line"/>
      <point x="1101" y="0" type="line"/>
      <point x="1101" y="1096" type="line"/>
      <point x="871" y="1096" type="line"/>
      <point x="871" y="262" type="line"/>
      <point x="809" y="186"/>
      <point x="680" y="139"/>
      <point x="581" y="139" type="curve" smooth="yes"/>
      <point x="417" y="139"/>
      <point x="359" y="255"/>
      <point x="359" y="404" type="curve" smooth="yes"/>
      <point x="359" y="1096" type="line"/>
      <point x="151" y="1096" type="line"/>
      <point x="151" y="-282" type="line"/>
    </contour>
  </outline>
</glyph>
<glyph name="emdash" format="1">
  <advance width="1320"/>
  <unicode hex="2014"/>
  <outline>
    <contour>
      <point x="120" y="527" type="line"/>
      <point x="1198" y="527" type="line"/>
      <point x="1198" y="691" type="line"/>
      <point x="120" y="691" type="line"/>
    </contour>
  </outline>
</glyph>
<glyph name="quoteleft" format="1">
  <advance width="670"/>
  <unicode hex="2018"/>
  <outline>
    <contour>
      <point x="182" y="931" type="line"/>
      <point x="478" y="931" type="line"/>
      <point x="478" y="1235" type="line"/>
      <point x="344" y="1235" type="line"/>
      <point x="343" y="1327"/>
      <point x="387" y="1364"/>
      <point x="478" y="1396" type="curve"/>
      <point x="428" y="1488" type="line"/>
      <point x="285" y="1447"/>
      <point x="182" y="1358"/>
      <point x="182" y="1193" type="curve" smooth="yes"/>
    </contour>
  </outline>
</glyph>
<glyph name="quoteright" format="1">
  <advance width="604"/>
  <unicode hex="2019"/>
  <outline>
    <contour>
      <point x="208" y="928" type="line"/>
      <point x="352" y="970"/>
      <point x="452" y="1059"/>
      <point x="452" y="1224" type="curve" smooth="yes"/>
      <point x="452" y="1486" type="line"/>
      <point x="158" y="1486" type="line"/>
      <point x="158" y="1181" type="line"/>
      <point x="292" y="1181" type="line"/>
      <point x="292" y="1088"/>
      <point x="249" y="1052"/>
      <point x="158" y="1020" type="curve"/>
    </contour>
  </outline>
</glyph>
<glyph name="quotesinglbase" format="1">
  <advance width="671"/>
  <unicode hex="201A"/>
  <outline>
    <contour>
      <point x="238" y="-252" type="line"/>
      <point x="381" y="-210"/>
      <point x="484" y="-123"/>
      <point x="484" y="43" type="curve" smooth="yes"/>
      <point x="484" y="306" type="line"/>
      <point x="189" y="306" type="line"/>
      <point x="189" y="1" type="line"/>
      <point x="322" y="1" type="line"/>
      <point x="322" y="-92"/>
      <point x="280" y="-128"/>
      <point x="189" y="-160" type="curve"/>
    </contour>
  </outline>
</glyph>
<glyph name="quotedblright" format="1">
  <advance width="915"/>
  <unicode hex="201D"/>
  <outline>
    <contour>
      <point x="181" y="928" type="line"/>
      <point x="326" y="970"/>
      <point x="427" y="1058"/>
      <point x="427" y="1223" type="curve" smooth="yes"/>
      <point x="427" y="1486" type="line"/>
      <point x="132" y="1486" type="line"/>
      <point x="132" y="1181" type="line"/>
      <point x="266" y="1181" type="line"/>
      <point x="266" y="1088"/>
      <point x="222" y="1052"/>
      <point x="132" y="1020" type="curve"/>
    </contour>
    <contour>
      <point x="566" y="928" type="line"/>
      <point x="710" y="970"/>
      <point x="811" y="1058"/>
      <point x="811" y="1223" type="curve" smooth="yes"/>
      <point x="811" y="1486" type="line"/>
      <point x="516" y="1486" type="line"/>
      <point x="516" y="1181" type="line"/>
      <point x="650" y="1181" type="line"/>
      <point x="651" y="1088"/>
      <point x="607" y="1052"/>
      <point x="516" y="1020" type="curve"/>
    </contour>
  </outline>
</glyph>
<glyph name="daggerdbl" format="1">
  <advance width="1096"/>
  <unicode hex="2021"/>
  <outline>
    <contour>
      <point x="442" y="-186" type="line"/>
      <point x="657" y="-186" type="line"/>
      <point x="657" y="269" type="line"/>
      <point x="962" y="269" type="line"/>
      <point x="962" y="423" type="line"/>
      <point x="657" y="423" type="line"/>
      <point x="657" y="932" type="line"/>
      <point x="964" y="932" type="line"/>
      <point x="964" y="1088" type="line"/>
      <point x="657" y="1088" type="line"/>
      <point x="657" y="1486" type="line"/>
      <point x="442" y="1486" type="line"/>
      <point x="442" y="1088" type="line"/>
      <point x="133" y="1088" type="line"/>
      <point x="133" y="932" type="line"/>
      <point x="442" y="932" type="line"/>
      <point x="442" y="423" type="line"/>
      <point x="133" y="423" type="line"/>
      <point x="133" y="269" type="line"/>
      <point x="442" y="269" type="line"/>
    </contour>
  </outline>
</glyph>
<glyph name="guilsinglright" format="1">
  <advance width="910"/>
  <unicode hex="203A"/>
  <outline>
    <contour>
      <point x="190" y="95" type="line"/>
      <point x="789" y="470" type="line"/>
      <point x="789" y="625" type="line"/>
      <point x="189" y="1000" type="line"/>
      <point x="189" y="799" type="line"/>
      <point x="603" y="550" type="line"/>
      <point x="190" y="298" type="line"/>
    </contour>
  </outline>
</glyph>
<glyph name="Euro" format="1">
  <advance width="1296"/>
  <unicode hex="20AC"/>
  <outline>
    <contour>
      <point x="-33" y="548" type="line"/>
      <point x="806" y="548" type="line"/>
      <point x="806" y="667" type="line"/>
      <point x="286" y="667" type="line"/>
      <point x="286" y="870" type="line"/>
      <point x="806" y="870" type="line"/>
      <point x="806" y="989" type="line"/>
      <point x="-33" y="989" type="line"/>
      <point x="-33" y="870" type="line"/>
      <point x="208" y="870" type="line"/>
      <point x="208" y="667" type="line"/>
      <point x="-33" y="667" type="line"/>
    </contour>
    <component base="C"/>
  </outline>
</glyph>
<glyph name="afii61289" format="1">
  <advance width="869"/>
  <unicode hex="2113"/>
  <outline>
    <contour>
      <point x="584" y="-16" type="curve" smooth="yes"/>
      <point x="663" y="-16"/>
      <point x="745" y="0"/>
      <point x="813" y="28" type="curve"/>
      <point x="781" y="164" type="line"/>
      <point x="724" y="144"/>
      <point x="667" y="132"/>
      <point x="613" y="132" type="curve" smooth="yes"/>
      <point x="529" y="132"/>
      <point x="462" y="163"/>
      <point x="462" y="265" type="curve" smooth="yes"/>
      <point x="462" y="952" type="line"/>
      <point x="636" y="1115" type="line" smooth="yes"/>
      <point x="714" y="1188"/>
      <point x="755" y="1248"/>
      <point x="755" y="1322" type="curve" smooth="yes"/>
      <point x="755" y="1445"/>
      <point x="648" y="1529"/>
      <point x="521" y="1529" type="curve" smooth="yes"/>
      <point x="394" y="1529"/>
      <point x="275" y="1447"/>
      <point x="275" y="1265" type="curve" smooth="yes"/>
      <point x="274" y="962" type="line"/>
      <point x="65" y="763" type="line"/>
      <point x="65" y="602" type="line"/>
      <point x="273" y="801" type="line"/>
      <point x="273" y="270" type="line" smooth="yes"/>
      <point x="273" y="55"/>
      <point x="421" y="-16"/>
    </contour>
    <contour>
      <point x="462" y="1117" type="line"/>
      <point x="462" y="1266" type="line" smooth="yes"/>
      <point x="462" y="1342"/>
      <point x="501" y="1373"/>
      <point x="540" y="1373" type="curve" smooth="yes"/>
      <point x="577" y="1373"/>
      <point x="606" y="1346"/>
      <point x="606" y="1304" type="curve" smooth="yes"/>
      <point x="606" y="1272"/>
      <point x="587" y="1238"/>
      <point x="553" y="1205" type="curve" smooth="yes"/>
    </contour>
  </outline>
</glyph>
<glyph name="trademark" format="1">
  <advance width="1605"/>
  <unicode hex="2122"/>
  <outline>
    <contour>
      <point x="713" y="698" type="line"/>
      <point x="853" y="698" type="line"/>
      <point x="853" y="1325" type="line"/>
      <point x="1047" y="735" type="line"/>
      <point x="1212" y="735" type="line"/>
      <point x="1408" y="1325" type="line"/>
      <point x="1408" y="698" type="line"/>
      <point x="1548" y="698" type="line"/>
      <point x="1548" y="1485" type="line"/>
      <point x="1329" y="1485" type="line"/>
      <point x="1130" y="885" type="line"/>
      <point x="933" y="1485" type="line"/>
      <point x="713" y="1485" type="line"/>
    </contour>
    <contour>
      <point x="241" y="698" type="line"/>
      <point x="393" y="698" type="line"/>
      <point x="393" y="1374" type="line"/>
      <point x="602" y="1374" type="line"/>
      <point x="602" y="1485" type="line"/>
      <point x="35" y="1485" type="line"/>
      <point x="35" y="1374" type="line"/>
      <point x="241" y="1374" type="line"/>
    </contour>
  </outline>
</glyph>
<glyph name="Omega" format="1">
  <advance width="1695"/>
  <unicode hex="2126"/>
  <outline>
    <contour>
      <point x="186" y="0" type="line"/>
      <point x="763" y="0" type="line"/>
      <point x="762" y="124" type="line"/>
      <point x="540" y="263"/>
      <point x="384" y="518"/>
      <point x="384" y="812" type="curve" smooth="yes"/>
      <point x="384" y="1155"/>
      <point x="607" y="1370"/>
      <point x="931" y="1370" type="curve" smooth="yes"/>
      <point x="1284" y="1370"/>
      <point x="1466" y="1119"/>
      <point x="1466" y="808" type="curve" smooth="yes"/>
      <point x="1466" y="511"/>
      <point x="1301" y="264"/>
      <point x="1083" y="124" type="curve"/>
      <point x="1084" y="0" type="line"/>
      <point x="1656" y="0" type="line"/>
      <point x="1670" y="137" type="line"/>
      <point x="1298" y="137" type="line"/>
      <point x="1489" y="285"/>
      <point x="1666" y="521"/>
      <point x="1666" y="826" type="curve" smooth="yes"/>
      <point x="1666" y="1223"/>
      <point x="1394" y="1533"/>
      <point x="936" y="1533" type="curve" smooth="yes"/>
      <point x="494" y="1533"/>
      <point x="184" y="1253"/>
      <point x="184" y="830" type="curve" smooth="yes"/>
      <point x="184" y="531"/>
      <point x="330" y="289"/>
      <point x="544" y="137" type="curve"/>
      <point x="169" y="137" type="line"/>
    </contour>
  </outline>
</glyph>
<glyph name="emptyset" format="1">
  <advance width="1652"/>
  <unicode hex="2205"/>
  <outline>
    <contour>
      <point x="352" y="-88" type="line"/>
      <point x="508" y="85" type="line"/>
      <point x="600" y="21"/>
      <point x="713" y="-17"/>
      <point x="835" y="-17" type="curve" smooth="yes"/>
      <point x="1152" y="-17"/>
      <point x="1409" y="239"/>
      <point x="1409" y="557" type="curve" smooth="yes"/>
      <point x="1409" y="702"/>
      <point x="1355" y="832"/>
      <point x="1267" y="933" type="curve"/>
      <point x="1420" y="1104" type="line"/>
      <point x="1332" y="1180" type="line"/>
      <point x="1183" y="1013" type="line"/>
      <point x="1087" y="1087"/>
      <point x="966" y="1131"/>
      <point x="835" y="1131" type="curve" smooth="yes"/>
      <point x="518" y="1131"/>
      <point x="260" y="874"/>
      <point x="260" y="557" type="curve" smooth="yes"/>
      <point x="260" y="404"/>
      <point x="320" y="264"/>
      <point x="419" y="161" type="curve"/>
      <point x="264" y="-12" type="line"/>
    </contour>
    <contour>
      <point x="523" y="278" type="line"/>
      <point x="459" y="353"/>
      <point x="422" y="451"/>
      <point x="422" y="557" type="curve" smooth="yes"/>
      <point x="422" y="784"/>
      <point x="591" y="978"/>
      <point x="835" y="978" type="curve" smooth="yes"/>
      <point x="930" y="978"/>
      <point x="1013" y="949"/>
      <point x="1081" y="900" type="curve"/>
    </contour>
    <contour>
      <point x="835" y="136" type="curve" smooth="yes"/>
      <point x="750" y="136"/>
      <point x="674" y="160"/>
      <point x="610" y="201" type="curve"/>
      <point x="1162" y="817" type="line"/>
      <point x="1216" y="745"/>
      <point x="1247" y="654"/>
      <point x="1247" y="557" type="curve" smooth="yes"/>
      <point x="1247" y="329"/>
      <point x="1079" y="136"/>
    </contour>
  </outline>
</glyph>
<glyph name="Delta" format="1">
  <advance width="1349"/>
  <unicode hex="2206"/>
  <outline>
    <contour>
      <point x="30" y="0" type="line"/>
      <point x="1312" y="0" type="line"/>
      <point x="808" y="1486" type="line"/>
      <point x="525" y="1486" type="line"/>
    </contour>
    <contour>
      <point x="315" y="187" type="line"/>
      <point x="667" y="1322" type="line"/>
      <point x="1005" y="187" type="line"/>
    </contour>
  </outline>
</glyph>
<glyph name="integral" format="1">
  <advance width="1223"/>
  <unicode hex="222B"/>
  <outline>
    <contour>
      <point x="325" y="-335" type="curve" smooth="yes"/>
      <point x="519" y="-335"/>
      <point x="626" y="-181"/>
      <point x="666" y="159" type="curve" smooth="yes"/>
      <point x="771" y="1078" type="line" smooth="yes"/>
      <point x="799" y="1291"/>
      <point x="852" y="1366"/>
      <point x="959" y="1366" type="curve" smooth="yes"/>
      <point x="1003" y="1366"/>
      <point x="1053" y="1359"/>
      <point x="1114" y="1340" type="curve"/>
      <point x="1150" y="1493" type="line"/>
      <point x="1065" y="1520"/>
      <point x="986" y="1536"/>
      <point x="916" y="1536" type="curve" smooth="yes"/>
      <point x="723" y="1536"/>
      <point x="591" y="1410"/>
      <point x="553" y="1079" type="curve" smooth="yes"/>
      <point x="452" y="176" type="line"/>
      <point x="422" y="-82"/>
      <point x="376" y="-169"/>
      <point x="283" y="-169" type="curve" smooth="yes"/>
      <point x="240" y="-169"/>
      <point x="190" y="-157"/>
      <point x="128" y="-133" type="curve"/>
      <point x="93" y="-282" type="line"/>
      <point x="183" y="-317"/>
      <point x="257" y="-335"/>
    </contour>
  </outline>
</glyph>
<glyph name="notequal" format="1">
  <advance width="956"/>
  <unicode hex="2260"/>
  <outline>
    <contour>
      <point x="317" y="-131" type="line"/>
      <point x="463" y="300" type="line"/>
      <point x="845" y="300" type="line"/>
      <point x="845" y="447" type="line"/>
      <point x="512" y="447" type="line"/>
      <point x="562" y="598" type="line"/>
      <point x="845" y="598" type="line"/>
      <point x="845" y="746" type="line"/>
      <point x="612" y="746" type="line"/>
      <point x="741" y="1128" type="line"/>
      <point x="637" y="1167" type="line"/>
      <point x="495" y="746" type="line"/>
      <point x="127" y="746" type="line"/>
      <point x="127" y="598" type="line"/>
      <point x="445" y="598" type="line"/>
      <point x="395" y="447" type="line"/>
      <point x="127" y="447" type="line"/>
      <point x="127" y="300" type="line"/>
      <point x="345" y="300" type="line"/>
      <point x="214" y="-91" type="line"/>
    </contour>
  </outline>
</glyph>
<glyph name="lessequal" format="1">
  <advance width="1382"/>
  <unicode hex="2264"/>
  <outline>
    <contour>
      <point x="1104" y="342" type="line"/>
      <point x="1188" y="482" type="line"/>
      <point x="520" y="829" type="line"/>
      <point x="1188" y="1176" type="line"/>
      <point x="1104" y="1315" type="line"/>
      <point x="179" y="829" type="line"/>
    </contour>
    <contour>
      <point x="267" y="0" type="line"/>
      <point x="1165" y="0" type="line"/>
      <point x="1165" y="149" type="line"/>
      <point x="267" y="149" type="line"/>
    </contour>
  </outline>
</glyph>
<glyph name="greaterequal" format="1">
  <advance width="1382"/>
  <unicode hex="2265"/>
  <outline>
    <contour>
      <point x="274" y="342" type="line"/>
      <point x="1198" y="829" type="line"/>
      <point x="274" y="1315" type="line"/>
      <point x="189" y="1176" type="line"/>
      <point x="857" y="829" type="line"/>
      <point x="189" y="482" type="line"/>
    </contour>
    <contour>
      <point x="212" y="0" type="line"/>
      <point x="1110" y="0" type="line"/>
      <point x="1110" y="149" type="line"/>
      <point x="212" y="149" type="line"/>
    </contour>
  </outline>
</glyph>
<glyph name="uniFB00" format="1">
  <advance width="1610"/>
  <unicode hex="FB00"/>
  <outline>
    <contour>
      <point x="260" y="0" type="line"/>
      <point x="475" y="0" type="line"/>
      <point x="475" y="964" type="line"/>
      <point x="965" y="964" type="line"/>
      <point x="965" y="0" type="line"/>
      <point x="1180" y="0" type="line"/>
      <point x="1180" y="964" type="line"/>
      <point x="1500" y="964" type="line"/>
      <point x="1500" y="1096" type="line"/>
      <point x="1180" y="1096" type="line"/>
      <point x="1180" y="1171" type="line" smooth="yes"/>
      <point x="1180" y="1367"/>
      <point x="1274" y="1392"/>
      <point x="1346" y="1393" type="curve" smooth="yes"/>
      <point x="1386" y="1394"/>
      <point x="1447" y="1379"/>
      <point x="1494" y="1361" type="curve"/>
      <point x="1535" y="1501" type="line"/>
      <point x="1468" y="1531"/>
      <point x="1388" y="1551"/>
      <point x="1307" y="1553" type="curve" smooth="yes"/>
      <point x="1151" y="1556"/>
      <point x="965" y="1476"/>
      <point x="965" y="1168" type="curve" smooth="yes"/>
      <point x="965" y="1096" type="line"/>
      <point x="475" y="1096" type="line"/>
      <point x="475" y="1171" type="line" smooth="yes"/>
      <point x="475" y="1367"/>
      <point x="569" y="1392"/>
      <point x="641" y="1393" type="curve" smooth="yes"/>
      <point x="681" y="1394"/>
      <point x="743" y="1379"/>
      <point x="790" y="1361" type="curve"/>
      <point x="830" y="1501" type="line"/>
      <point x="763" y="1531"/>
      <point x="683" y="1551"/>
      <point x="602" y="1553" type="curve" smooth="yes"/>
      <point x="447" y="1556"/>
      <point x="260" y="1476"/>
      <point x="260" y="1168" type="curve" smooth="yes"/>
      <point x="260" y="1096" type="line"/>
      <point x="71" y="1096" type="line"/>
      <point x="71" y="964" type="line"/>
      <point x="260" y="964" type="line"/>
    </contour>
  </outline>
</glyph>
